<svg width="488" height="480" viewBox="0 0 488 480" fill="none" xmlns="http://www.w3.org/2000/svg">
<g clip-path="url(#clip0_47_4939)">
<path d="M-0.000244141 381.35H124.26V479.67H-0.000244141V381.35Z" fill="#FACA20" fill-opacity="0.15"/>
<path d="M123.85 167.5V99.45H124.26H191.9V167.5H124.26V267.43H-9.15527e-05V167.5H123.85Z" fill="#FACA20" fill-opacity="0.15"/>
<path d="M214.72 267.61V365.92H297.67V269.87H411.42V383.62H313.65V479.67H199.9V381.35H124.26V267.61H214.72Z" fill="#FACA20" fill-opacity="0.15"/>
<path d="M219.19 197.22H287.23V265.26H219.19V197.22Z" fill="#FACA20" fill-opacity="0.15"/>
<path d="M323.38 99.45H391.42V167.49H323.38V99.45Z" fill="#FACA20" fill-opacity="0.15"/>
<path d="M419.8 195.52H487.84V263.56H419.8V195.52Z" fill="#FACA20" fill-opacity="0.15"/>
<path d="M222.75 0H290.79V68.04H222.75V0Z" fill="#FACA20" fill-opacity="0.15"/>
</g>
<defs>
<clipPath id="clip0_47_4939">
<rect width="487.84" height="479.67" fill="white" transform="matrix(-1 0 0 1 487.84 0)"/>
</clipPath>
</defs>
</svg>
