<svg width="26" height="27" viewBox="0 0 26 27" fill="none" xmlns="http://www.w3.org/2000/svg">
<circle cx="12.9992" cy="13.2389" r="12.9992" fill="#F31C87"/>
<path d="M21.6802 20.3515L21.4268 20.1514L21.6285 19.8948C21.6979 19.8093 21.7754 19.706 21.8383 19.6124L22.0465 19.3171L20.7329 18.4603L20.9088 18.1908L22.4903 19.2219L22.2805 19.5446L22.1014 19.7964C22.0336 19.8948 21.9513 20.0045 21.8787 20.0949L21.6786 20.3498L21.6802 20.3515Z" fill="white"/>
<path d="M21.548 21.665L20.186 20.358L20.4023 20.1304C20.4684 20.0643 20.5491 19.9707 20.6217 19.8868C20.6508 19.8529 20.6798 19.819 20.7089 19.7867C20.7557 19.7319 20.8009 19.6818 20.8348 19.6383L21.03 19.3898L21.2834 19.5899L21.0897 19.8367C21.0526 19.8835 21.0042 19.94 20.9526 19.9997C20.9251 20.032 20.8961 20.0643 20.8686 20.0965C20.796 20.1821 20.7121 20.2773 20.6427 20.3483L21.7723 21.4326L21.548 21.665Z" fill="white"/>
<path d="M19.548 22.3496L19.3608 22.0881L19.4916 21.9946C19.4916 21.9946 19.5432 21.9574 19.6158 21.8994L19.9015 21.6751C19.9999 21.5928 20.0967 21.5089 20.1709 21.4459L19.1252 20.2841L19.3657 20.0679L20.6309 21.4734L20.5082 21.5815C20.5082 21.5815 20.3097 21.7574 20.1064 21.9268L19.8175 22.1543C19.7369 22.2189 19.682 22.2592 19.682 22.2592L19.5513 22.3528L19.548 22.3496Z" fill="white"/>
<path d="M19.0896 23.5872L18.1101 21.9768L18.6539 21.6282L19.1784 21.2555L19.3656 21.5185L18.8347 21.8945L18.549 22.0784L19.364 23.421L19.0896 23.5872Z" fill="white"/>
<path d="M16.9767 23.7294L16.8638 23.4277L17.0155 23.3712C17.0155 23.3712 17.2591 23.2792 17.4867 23.1711C17.6077 23.1195 17.7255 23.0614 17.8126 23.0178L17.0994 21.6236L17.3866 21.4768L18.2451 23.155L18.1063 23.2292C18.0967 23.2341 17.8659 23.3583 17.619 23.4632C17.3834 23.5745 17.1381 23.6681 17.1268 23.6714L16.9751 23.7278L16.9767 23.7294Z" fill="white"/>
<path d="M16.2119 24.8058L15.6826 22.9904L15.986 22.9049C16.0376 22.8888 16.1022 22.8678 16.1716 22.8436L16.2991 22.8C16.4249 22.7597 16.5298 22.7209 16.6024 22.6903L16.8978 22.5741L17.0172 22.8742L16.7251 22.9904C16.6267 23.0324 16.4927 23.0776 16.4007 23.1082L16.2781 23.1502C16.2071 23.1744 16.1425 23.197 16.0861 23.2131L16.525 24.7154L16.2152 24.8058H16.2119Z" fill="white"/>
<path d="M14.1407 24.4027L14.1003 24.0832L14.5151 24.0299C14.5925 24.0202 14.6813 24.0089 14.77 23.9912L15.1283 23.9266L14.8007 22.3953L15.117 22.3275L15.5107 24.1719L15.3123 24.2171C15.2848 24.2235 15.2396 24.2332 15.1864 24.2429L14.8314 24.3058C14.7362 24.3252 14.6409 24.3365 14.5554 24.3478L14.1423 24.401L14.1407 24.4027Z" fill="white"/>
<path d="M13.121 25.2402L13.0774 23.3522L13.3905 23.3441C13.4679 23.3441 13.5744 23.3377 13.7164 23.3264L14.3571 23.2618L14.3974 23.5813L14.086 23.6217L13.7423 23.6491C13.597 23.662 13.4889 23.6669 13.4066 23.6685L13.4421 25.2337L13.1194 25.2418L13.121 25.2402Z" fill="white"/>
<path d="M23.2137 17.8772L22.9232 17.7384L22.9926 17.5932C22.9926 17.5932 23.0201 17.5351 23.0556 17.4512L23.1879 17.1172C23.2282 17.0187 23.2637 16.9171 23.2912 16.8348L23.3089 16.7831L21.821 16.2974L21.9211 15.9908L23.7188 16.5782L23.5978 16.9381C23.5687 17.0252 23.5316 17.1333 23.488 17.2398L23.3557 17.5738C23.3154 17.6723 23.2847 17.7352 23.2847 17.7352L23.2153 17.8804L23.2137 17.8772Z" fill="white"/>
<path d="M23.4347 19.1794L21.7742 18.2612L21.8645 18.1176C21.8645 18.1176 21.8952 18.0692 21.9291 17.9982L22.084 17.6964C22.1211 17.6271 22.1502 17.5593 22.1776 17.498C22.1937 17.4609 22.2099 17.427 22.2244 17.3963L22.3519 17.1123L22.6456 17.2446L22.5165 17.5302C22.502 17.5609 22.4874 17.5932 22.4729 17.6271C22.4423 17.6948 22.4084 17.7723 22.3696 17.8449L22.2196 18.1386L23.5912 18.897L23.4347 19.1794Z" fill="white"/>
<path d="M24.0773 15.0786L23.7562 15.0383L23.8434 14.3557L23.8708 14.004L22.3103 13.9184L22.3281 13.5957L24.2177 13.699L24.1645 14.388L24.0773 15.0786Z" fill="white"/>
<path d="M24.6146 16.2857L22.783 15.8323L22.8524 15.5289C22.8588 15.4999 22.8669 15.4628 22.8766 15.4257C22.8927 15.3595 22.9104 15.2853 22.9234 15.211L22.9831 14.8786C22.9992 14.7963 23.0057 14.7399 23.0057 14.7382L23.025 14.5785L23.3445 14.6156L23.3268 14.7754C23.3268 14.7754 23.3187 14.8415 23.301 14.9383L23.2429 15.2675C23.23 15.3482 23.2106 15.4305 23.1929 15.5031C23.1848 15.537 23.1767 15.5693 23.1703 15.5983L24.6936 15.9759L24.6162 16.2889L24.6146 16.2857Z" fill="white"/>
<path d="M12.9887 21.8981C12.9161 21.8981 12.8773 21.8949 12.8773 21.8949L12.7175 21.882L12.7417 21.5608L12.9015 21.5721C12.9015 21.5721 12.9516 21.5753 13.0371 21.5737L13.46 21.5624C13.9733 21.5301 14.4511 21.4607 14.9176 21.351C15.2339 21.2816 15.5745 21.1702 15.865 21.0702C16.1911 20.941 16.5317 20.8071 16.8642 20.6263C17.2548 20.4197 17.5824 20.2163 17.8665 20.0065C18.2329 19.7402 18.538 19.4852 18.7995 19.2253C19.3709 18.6734 19.8761 18.0213 20.2619 17.3353L20.4459 16.9916L20.5266 16.8334C20.5492 16.7785 20.5782 16.7156 20.6073 16.6526C20.6557 16.5477 20.7009 16.4476 20.7364 16.3492L20.8349 16.099L20.9107 15.8731C20.9527 15.7568 20.9834 15.6519 21.0108 15.5486C21.0237 15.5002 21.0382 15.4518 21.0512 15.405C21.2158 14.7997 21.2739 14.2881 21.3046 13.9556L21.3126 13.8523C21.3223 13.7232 21.3304 13.6215 21.3304 13.5505L21.3385 13.2325L21.6613 13.2406L21.6532 13.5521C21.6532 13.6312 21.6468 13.7393 21.6355 13.8765L21.6274 13.9814C21.5967 14.3285 21.5354 14.8595 21.3627 15.4922C21.3481 15.5406 21.3352 15.5874 21.3223 15.6342C21.2917 15.7423 21.261 15.8553 21.2174 15.9699L21.0382 16.4606C20.9995 16.5687 20.9495 16.6784 20.8994 16.7866C20.872 16.8463 20.8445 16.906 20.8171 16.969L20.6186 17.3596L20.5411 17.4935C20.1408 18.2053 19.6162 18.8832 19.0238 19.4545C18.7511 19.7241 18.4331 19.9904 18.0554 20.2648C17.76 20.4827 17.4194 20.6941 17.0159 20.9087C16.6672 21.0992 16.317 21.238 15.978 21.3704C15.6681 21.4769 15.3179 21.5915 14.9886 21.6641C14.5076 21.7771 14.012 21.8481 13.4745 21.882L13.0452 21.8933C13.0258 21.8933 13.0065 21.8933 12.9903 21.8933L12.9887 21.8981Z" fill="white"/>
<path d="M13.0048 22.894C12.9822 22.894 12.9628 22.894 12.9451 22.894L12.7126 22.8875L12.7207 22.5647L12.9564 22.5712C12.9774 22.5712 13.0048 22.5728 13.0371 22.5712L13.5132 22.5583C14.0862 22.5228 14.6221 22.4453 15.1451 22.3226C15.5147 22.2419 15.907 22.1128 16.2056 22.0079C16.6026 21.853 16.9658 21.7061 17.3258 21.5092C17.7583 21.28 18.1247 21.054 18.4476 20.8152C18.8527 20.5214 19.1949 20.2357 19.4919 19.942C20.1311 19.3254 20.696 18.5943 21.1286 17.826L21.2803 17.5484L21.424 17.266C21.4498 17.2079 21.4805 17.1401 21.5095 17.0739C21.566 16.9528 21.6177 16.8382 21.6596 16.722L21.792 16.3766L21.8582 16.1813C21.9034 16.0587 21.9373 15.9376 21.9695 15.8198C21.9841 15.7682 21.9986 15.7181 22.0131 15.6681C22.1519 15.1565 22.2455 14.6238 22.2972 14.0444L22.3037 13.9572C22.3166 13.7991 22.3263 13.6748 22.3246 13.5876L22.3327 13.2535L22.6555 13.2616L22.6475 13.5909C22.6475 13.6845 22.6378 13.8168 22.6249 13.9815L22.6184 14.0702C22.5651 14.6706 22.4683 15.221 22.323 15.7552C22.3085 15.8069 22.294 15.8569 22.2794 15.907C22.2455 16.0312 22.2084 16.1587 22.1616 16.2879L22.0276 16.6655L21.9599 16.8366C21.9147 16.9609 21.8565 17.0868 21.8001 17.2095C21.771 17.274 21.7403 17.3386 21.7129 17.4048L21.495 17.8341L21.4062 17.989C20.9607 18.7815 20.3748 19.5385 19.7146 20.176C19.4063 20.4811 19.0528 20.7764 18.6348 21.0798C18.3007 21.3268 17.9197 21.5608 17.4759 21.7965C17.0998 22.0014 16.7269 22.1515 16.3137 22.3129C16.0006 22.4211 15.5971 22.555 15.2129 22.639C14.6738 22.7649 14.1218 22.8456 13.5245 22.8827L13.0468 22.8956C13.0322 22.8956 13.0161 22.8956 13.0032 22.8956L13.0048 22.894Z" fill="white"/>
<path d="M13.0048 26.2382C12.9757 26.2382 12.9499 26.2382 12.9273 26.2382L12.6707 26.2333L12.6771 25.9105L12.937 25.9154C12.9676 25.9154 13.008 25.917 13.0532 25.9154L13.1839 25.9121C13.3179 25.9089 13.4874 25.9057 13.6875 25.8976C14.4623 25.8508 15.1887 25.7459 15.9069 25.578C16.3185 25.486 16.7898 25.3456 17.3483 25.1503C17.8342 24.9631 18.3588 24.7517 18.8769 24.4724C19.4515 24.169 19.9487 23.8607 20.4006 23.5315C20.9316 23.1473 21.4078 22.7487 21.8178 22.3468C22.6846 21.5107 23.4513 20.5197 24.0372 19.4771C24.5472 18.5894 24.9508 17.6032 25.2413 16.5428C25.4334 15.8343 25.5609 15.1112 25.6287 14.3317C25.6481 14.075 25.6658 13.8523 25.6674 13.7103L25.6771 13.3213L25.9999 13.3294L25.9902 13.7151C25.9902 13.8668 25.9725 14.0831 25.9515 14.3591C25.8805 15.1596 25.7514 15.9021 25.5544 16.6284C25.2574 17.7146 24.8426 18.7282 24.3196 19.6385C23.7192 20.707 22.9315 21.7238 22.0454 22.5808C21.6257 22.994 21.1366 23.4024 20.5943 23.7962C20.131 24.1351 19.621 24.4515 19.0335 24.7614C18.5008 25.0486 17.9649 25.2665 17.4645 25.4586C16.8883 25.6604 16.4057 25.804 15.9828 25.8976C15.2484 26.0703 14.5043 26.1768 13.7069 26.2253C13.5003 26.2333 13.3292 26.2382 13.1936 26.2398L13.0661 26.243C13.0451 26.243 13.0258 26.243 13.0064 26.243L13.0048 26.2382Z" fill="white"/>
<path d="M13.0032 25.244C12.9758 25.244 12.9516 25.244 12.9306 25.244L12.6804 25.2375L12.6885 24.9147L12.9403 24.9212C12.9677 24.9212 13.0049 24.9228 13.0468 24.9212L13.184 24.9179C13.3051 24.9147 13.4568 24.9115 13.6344 24.905C14.3494 24.8614 15.0193 24.7646 15.6794 24.6097C16.0571 24.5257 16.48 24.3998 17.0078 24.2158C17.4291 24.0528 17.9246 23.8559 18.4153 23.5912C18.948 23.3104 19.4064 23.0263 19.8196 22.7229C20.3184 22.3613 20.7445 22.0046 21.1254 21.6302C21.9244 20.8603 22.6314 19.9452 23.1705 18.9848C23.6386 18.1698 24.0114 17.2611 24.2794 16.2814C24.4569 15.6309 24.5731 14.9644 24.6361 14.2445V14.2171C24.6571 13.9814 24.6716 13.7958 24.6716 13.6715L24.6813 13.2987L25.0041 13.3068L24.9944 13.6764C24.9944 13.8087 24.9799 14.0008 24.9605 14.2429V14.272C24.8927 15.0128 24.7733 15.6971 24.5909 16.3669C24.3165 17.3725 23.9323 18.307 23.4513 19.1446C22.8961 20.1308 22.1697 21.0701 21.3498 21.861C20.9592 22.2451 20.5201 22.6131 20.0085 22.9827C19.5839 23.2942 19.111 23.5864 18.5671 23.8737C18.0861 24.1335 17.5873 24.3369 17.1192 24.5177C16.5736 24.7081 16.1411 24.8372 15.7521 24.9228C15.0758 25.0809 14.3881 25.181 13.6521 25.2246C13.4681 25.2327 13.3148 25.2359 13.1921 25.2375L13.0597 25.2407C13.0404 25.2407 13.021 25.2407 13.0049 25.2407L13.0032 25.244Z" fill="white"/>
<path d="M7.02424 22.7353L6.75152 22.5594C6.69343 22.5207 6.62888 22.4739 6.55949 22.4239L6.29161 22.2335L5.89624 21.9237L6.09473 21.6703L6.74507 22.1609C6.81123 22.2077 6.87417 22.2529 6.92742 22.2884L7.7827 20.9749L8.05381 21.1507L7.02424 22.7337V22.7353Z" fill="white"/>
<path d="M4.8149 22.0171L4.58252 21.7944L5.88965 20.4309L6.11719 20.6471C6.17689 20.7068 6.26242 20.7811 6.34634 20.8521L6.36247 20.865C6.53998 21.0247 6.73041 21.17 6.73202 21.1716L6.8595 21.27L6.66263 21.5266L6.53514 21.4281C6.52708 21.4217 6.33343 21.2732 6.14946 21.107L6.13655 21.0957C6.04941 21.0199 5.96549 20.9489 5.90094 20.8843L4.81813 22.0155L4.8149 22.0171Z" fill="white"/>
<path d="M4.77451 20.8776L4.32266 20.3532L4.09512 20.0628C4.03219 19.9837 3.99184 19.9288 3.99184 19.9288L3.89502 19.7997L4.15483 19.6077L4.25166 19.7368C4.25166 19.7368 4.29039 19.7884 4.34848 19.8627L4.57279 20.1483L4.80355 20.4161L5.96383 19.3689L6.18007 19.6077L4.77451 20.876V20.8776Z" fill="white"/>
<path d="M2.82457 19.614L2.65674 19.338L4.26725 18.3569L4.61582 18.9023L4.98859 19.4252L4.72555 19.6123L4.34955 19.0831L4.16558 18.7975L2.82457 19.614Z" fill="white"/>
<path d="M3.08591 18.4971L2.93745 18.2066C2.89872 18.1356 2.85837 18.0452 2.8148 17.9484L2.78092 17.8726C2.66795 17.6338 2.57436 17.3885 2.57113 17.3788L2.51465 17.2271L2.81642 17.1125L2.8729 17.2642C2.8729 17.2642 2.96488 17.5079 3.07462 17.737L3.11012 17.8161C3.15046 17.9048 3.18919 17.992 3.22469 18.0565L3.22792 18.063L4.62219 17.3481L4.76904 17.6354L3.08753 18.4971H3.08591Z" fill="white"/>
<path d="M3.36807 17.2656L3.13408 16.6492L3.02757 16.3329L1.52518 16.7735L1.43481 16.4637L3.25027 15.9312L3.3358 16.2345L3.60852 16.9962L3.66823 17.1462L3.36807 17.2656Z" fill="white"/>
<path d="M2.06753 15.761L2.02073 15.5626C2.01428 15.5335 2.00298 15.4883 1.99491 15.4351L1.93198 15.0817C1.911 14.98 1.89809 14.8735 1.8884 14.788L1.83838 14.391L2.1579 14.3507L2.20793 14.7477C2.21761 14.83 2.23052 14.9252 2.24827 15.0204L2.31282 15.377L3.84426 15.0478L3.91203 15.3641L2.06753 15.7594V15.761Z" fill="white"/>
<path d="M2.6598 14.6476L2.61946 14.3362C2.61301 14.2733 2.60817 14.2023 2.60171 14.1248L2.59203 13.9925C2.58396 13.8811 2.57266 13.7553 2.57266 13.6568L1.00734 13.694L0.999268 13.3712L2.88734 13.326L2.89541 13.6407C2.89541 13.7327 2.90509 13.8569 2.91478 13.9683L2.92446 14.1022C2.9293 14.1748 2.93414 14.2426 2.9406 14.2991L2.98094 14.6073L2.66142 14.6492L2.6598 14.6476Z" fill="white"/>
<path d="M9.67436 23.9587L9.2919 23.8296C9.21121 23.8022 9.11116 23.7683 9.01272 23.7279L8.67868 23.5956C8.57863 23.5569 8.51569 23.5246 8.51569 23.5246L8.37207 23.4536L8.51408 23.1648L8.65932 23.2358C8.65932 23.2358 8.7158 23.2632 8.7981 23.2955L9.13376 23.4278C9.22574 23.4665 9.31611 23.4956 9.39357 23.523L9.4678 23.5488L9.95192 22.061L10.2585 22.1611L9.67274 23.9587H9.67436Z" fill="white"/>
<path d="M7.35394 23.8344L7.07153 23.6779L7.98652 22.0175L8.13015 22.1046C8.13015 22.1046 8.18017 22.1336 8.25118 22.1691L8.55295 22.324C8.62072 22.3595 8.69011 22.3902 8.75144 22.4176C8.78855 22.4338 8.82244 22.4483 8.8531 22.4628L9.13712 22.5919L9.00318 22.8856L8.71755 22.7565C8.68689 22.742 8.65461 22.7275 8.62072 22.7129C8.55295 22.6823 8.4771 22.65 8.40287 22.6113L8.10755 22.4596L7.35071 23.8328L7.35394 23.8344Z" fill="white"/>
<path d="M12.5526 24.4558L11.8619 24.4025L11.1729 24.3154L11.2132 23.9959L11.8958 24.0814L12.2476 24.1089L12.3315 22.5485L12.6526 22.5662L12.5526 24.4558Z" fill="white"/>
<path d="M10.2784 24.9318L9.96533 24.8543L10.4156 23.0228L10.7189 23.0922C10.748 23.0987 10.7851 23.1067 10.8238 23.1164C10.8884 23.1326 10.9626 23.1503 11.0369 23.1616L11.3709 23.2213C11.4532 23.2374 11.5065 23.2439 11.5113 23.2439L11.6711 23.26L11.6372 23.5811L11.4774 23.565C11.4774 23.565 11.4112 23.5586 11.3128 23.5392L10.9836 23.4811C10.9045 23.4682 10.8222 23.4488 10.7496 23.4311C10.7157 23.423 10.6834 23.4149 10.6528 23.4085L10.2784 24.9318Z" fill="white"/>
<path d="M13.0049 21.8997L12.6934 21.8916C12.6046 21.8916 12.4755 21.8836 12.3124 21.8707L12.2624 21.8674C11.7233 21.8206 11.2294 21.7351 10.7516 21.6044C10.0204 21.4042 9.34732 21.1282 8.7501 20.7861C8.03828 20.3858 7.35875 19.8628 6.78574 19.2705C6.21273 18.683 5.70913 17.989 5.3282 17.2627C5.13612 16.9124 4.99247 16.5461 4.86334 16.2233C4.75842 15.9166 4.64221 15.5664 4.56957 15.2355C4.45497 14.7481 4.38234 14.2509 4.35006 13.7216L4.33714 13.2922C4.33553 13.2503 4.33714 13.2148 4.33714 13.1873L4.34199 12.9727L4.66481 12.9807L4.65996 13.1986C4.65996 13.2196 4.65835 13.247 4.65996 13.2793L4.67288 13.707C4.70354 14.2138 4.77295 14.6916 4.88432 15.1629C4.95373 15.4792 5.0651 15.8198 5.16518 16.1103C5.29269 16.4331 5.42828 16.7736 5.61067 17.1093C5.97707 17.8098 6.46292 18.478 7.01494 19.0445C7.56535 19.6143 8.21906 20.1195 8.90667 20.5036C9.48129 20.8329 10.1286 21.0976 10.8339 21.2912C11.2923 21.4155 11.7669 21.4978 12.2866 21.543L12.335 21.5462C12.49 21.5592 12.611 21.5672 12.6934 21.5672L13.0113 21.5753L13.0033 21.8981L13.0049 21.8997Z" fill="white"/>
<path d="M12.9887 22.8923L12.6595 22.8843C12.5578 22.8843 12.3964 22.873 12.1994 22.8568H12.1785C11.5796 22.8036 11.0292 22.7083 10.4933 22.5631C9.67983 22.3403 8.92927 22.0337 8.26103 21.6495C7.46689 21.2041 6.70988 20.6198 6.0723 19.9613C5.43312 19.306 4.87141 18.5329 4.44851 17.7227C4.24191 17.345 4.08534 16.9576 3.93039 16.5622C3.82224 16.2475 3.68827 15.8456 3.60272 15.4615C3.4736 14.9159 3.3945 14.3623 3.35738 13.7732C3.35254 13.6425 3.34931 13.5327 3.3477 13.4407C3.3477 13.3858 3.34608 13.3374 3.34447 13.2971C3.34285 13.2503 3.34447 13.2099 3.34447 13.1792L3.34931 12.9581L3.67213 12.9646L3.66729 13.1889C3.66729 13.2131 3.66567 13.2438 3.66729 13.2825C3.66729 13.3261 3.67052 13.3762 3.67052 13.4326C3.67213 13.523 3.67536 13.6312 3.6802 13.7554C3.71571 14.3236 3.79319 14.8578 3.91747 15.3888C3.99979 15.7584 4.12892 16.149 4.23222 16.4492C4.38072 16.8285 4.53406 17.2046 4.7326 17.5693C5.14258 18.3537 5.68492 19.101 6.30312 19.7337C6.91971 20.3713 7.6509 20.9362 8.41921 21.3671C9.06485 21.7383 9.7912 22.0353 10.5773 22.25C11.0938 22.3904 11.6264 22.4824 12.2043 22.5324H12.2237C12.4125 22.5485 12.5578 22.5582 12.6611 22.5598L12.9952 22.5679L12.9871 22.8907L12.9887 22.8923Z" fill="white"/>
<path d="M12.9291 26.2365L12.5433 26.2268C12.3996 26.2268 12.1898 26.2123 11.8993 26.1881C11.1003 26.1187 10.3594 25.9895 9.62983 25.7926C8.54515 25.4973 7.53311 25.0841 6.61791 24.5612C5.54937 23.9607 4.53087 23.1747 3.67378 22.2886C2.81508 21.4074 2.05968 20.3664 1.4899 19.2769C1.19936 18.7394 0.973385 18.1826 0.790991 17.7097C0.589228 17.1351 0.445573 16.6525 0.350341 16.2297C0.176017 15.4888 0.0678722 14.7432 0.0210632 13.9539C0.0113786 13.7554 0.00815036 13.5891 0.00492215 13.4552L0.00169394 13.3132C7.98377e-05 13.2502 0.00169394 13.1986 0.00169394 13.1582L0.00815036 12.9177L0.330971 12.9258L0.324515 13.1679C0.324515 13.2018 0.322901 13.247 0.324515 13.3035L0.327743 13.4503C0.330971 13.5811 0.334199 13.7457 0.34227 13.9378C0.387465 14.706 0.492382 15.4323 0.663477 16.157C0.757095 16.5702 0.897522 17.0415 1.09283 17.5983C1.27038 18.0583 1.4899 18.6022 1.77398 19.1252C2.33085 20.1888 3.06688 21.204 3.9046 22.0627C4.74071 22.9262 5.73338 23.6928 6.77609 24.2787C7.66708 24.7887 8.65491 25.1922 9.71215 25.4795C10.4224 25.6716 11.1455 25.7975 11.9235 25.8637C12.2059 25.8862 12.4077 25.9008 12.5449 25.9008L12.9339 25.9105L12.9258 26.2333L12.9291 26.2365Z" fill="white"/>
<path d="M12.9464 25.2422L12.5768 25.2325C12.4347 25.2325 12.2233 25.2164 11.9812 25.197C11.2419 25.1341 10.5575 25.0146 9.88608 24.8323C8.88211 24.5595 7.94754 24.177 7.10659 23.696C6.11876 23.1424 5.17935 22.4161 4.38682 21.5978C3.59268 20.7843 2.89539 19.8224 2.36919 18.8169C2.10771 18.3327 1.90433 17.8355 1.72517 17.3707C1.5347 16.8268 1.40557 16.3926 1.31841 16.0036C1.157 15.3193 1.05693 14.6317 1.01335 13.9022C1.00528 13.7231 1.00205 13.5713 0.998819 13.4503L0.99559 13.3115C0.993976 13.2534 0.99559 13.2066 0.99559 13.1711L1.00043 12.9354L1.32325 12.9403L1.31841 13.1791C1.31841 13.2098 1.3168 13.2502 1.31841 13.3002L1.32164 13.4438C1.32487 13.5633 1.3281 13.7118 1.33455 13.8861C1.37652 14.5946 1.47337 15.2644 1.63155 15.931C1.7171 16.3103 1.84138 16.7316 2.027 17.2593C2.20133 17.7096 2.39825 18.1955 2.65328 18.6651C3.16656 19.6448 3.84449 20.581 4.61764 21.3734C5.38757 22.1708 6.30277 22.8761 7.26477 23.4152C8.08312 23.8832 8.99348 24.2561 9.97001 24.5208C10.6221 24.6967 11.2887 24.8129 12.007 24.8758C12.2411 24.8952 12.446 24.9097 12.58 24.9097L12.9529 24.9194L12.9448 25.2422H12.9464Z" fill="white"/>
<path d="M5.05652 8.34L3.47021 7.32018L3.55252 7.18463C3.55897 7.17495 3.69614 6.95227 3.85428 6.73766C4.00113 6.52143 4.16735 6.31811 4.17381 6.31004L4.27547 6.18579L4.5256 6.39072L4.42393 6.51497C4.42393 6.51497 4.25933 6.71668 4.11732 6.92484C4.03825 7.03134 3.96563 7.13945 3.91238 7.22175L5.2308 8.06891L5.05652 8.34Z" fill="white"/>
<path d="M4.92774 7.14395L4.67277 6.94547L4.86642 6.69859C4.92451 6.62113 5.01166 6.52109 5.0875 6.43395C5.11655 6.40006 5.1456 6.36779 5.17303 6.33552C5.22144 6.27904 5.26663 6.22579 5.30858 6.18222L4.1709 5.10593L4.39198 4.87195L5.76366 6.17093L5.5458 6.39845C5.50546 6.43879 5.46189 6.49043 5.41509 6.54529C5.38604 6.57918 5.357 6.61306 5.32634 6.64695C5.25372 6.72925 5.17142 6.82284 5.11978 6.89384L4.92451 7.14395H4.92774Z" fill="white"/>
<path d="M6.58857 6.45646L5.31372 5.06228L5.43314 4.95417C5.43314 4.95417 5.48316 4.90898 5.56062 4.84282L5.83334 4.60723L6.37879 4.17639L6.57889 4.42973L6.0399 4.85573L5.77202 5.08648L6.82741 6.24024L6.58857 6.45808V6.45646Z" fill="white"/>
<path d="M6.78054 5.26853L6.5756 5.02003L6.69986 4.91676C6.69986 4.91676 6.7515 4.8748 6.8338 4.81671L7.10652 4.62307C7.17268 4.57466 7.24369 4.5311 7.30662 4.49076C7.33729 4.47139 7.36472 4.45364 7.39054 4.43751L6.56592 3.10303L6.84025 2.93359L7.83109 4.53916L7.56966 4.70698C7.54384 4.72473 7.51318 4.7441 7.47929 4.76507C7.4212 4.80219 7.35826 4.84253 7.29533 4.8861L7.02099 5.08135C6.9516 5.12814 6.90964 5.16364 6.90803 5.16526L6.78377 5.26692L6.78054 5.26853Z" fill="white"/>
<path d="M8.55614 5.03126L7.68311 3.35469L8.12366 3.13039L8.63683 2.89803L8.94666 2.77539L9.06608 3.07553L8.7627 3.19494L8.26405 3.42085L8.11882 3.49507L8.84177 4.8828L8.55614 5.03126Z" fill="white"/>
<path d="M9.03406 3.92886L8.91626 3.62872L9.27451 3.48834C9.35197 3.45768 9.44234 3.42218 9.53432 3.39313L9.84739 3.28663L9.39715 1.78595L9.70699 1.69397L10.2508 3.51093L10.0862 3.55127C10.0862 3.55127 10.0297 3.56579 9.95389 3.59161L9.63599 3.69972C9.54885 3.72715 9.46654 3.75943 9.39554 3.78847L9.03568 3.93047L9.03406 3.92886Z" fill="white"/>
<path d="M10.8193 4.16272L10.4126 2.31994L10.7289 2.24733L11.4583 2.12469L11.781 2.08435L11.8214 2.40385L11.3324 2.46678L10.7967 2.5636L11.1339 4.09333L10.8193 4.16272Z" fill="white"/>
<path d="M11.5749 3.22841L11.5281 2.90891L11.6878 2.88471C11.6975 2.88471 11.9396 2.84759 12.1897 2.83468C12.3091 2.82339 12.4285 2.81693 12.5205 2.81209L12.4737 1.24686L12.7965 1.23718L12.853 3.12837H12.6884C12.6884 3.12837 12.4463 3.13321 12.2139 3.1558C11.9735 3.16871 11.7379 3.20421 11.7362 3.20421L11.5765 3.22841H11.5749Z" fill="white"/>
<path d="M4.05914 10.5512L2.25659 9.97679L2.36148 9.66536C2.37278 9.63309 2.38408 9.59759 2.39699 9.56047C2.42281 9.48463 2.45024 9.39911 2.48413 9.31682L2.61646 8.97957C2.65357 8.88275 2.68262 8.81981 2.68262 8.81981L2.7504 8.67297L3.04248 8.80852L2.97471 8.95536C2.97471 8.95536 2.94889 9.01345 2.91661 9.09736L2.78267 9.43622C2.75201 9.51368 2.72619 9.59275 2.70198 9.66375C2.68907 9.70248 2.67778 9.73798 2.66648 9.77025L4.15596 10.2463L4.05752 10.5545L4.05914 10.5512Z" fill="white"/>
<path d="M3.61866 9.43269L3.32496 9.29876L3.59446 8.70655L3.74938 8.4048L2.36963 7.65446L2.52293 7.37207L4.18024 8.27087L3.88493 8.84694L3.61866 9.43269Z" fill="white"/>
<path d="M3.67171 12.9481L1.78687 12.8577L1.79332 12.698C1.79332 12.698 1.79655 12.6302 1.80462 12.5269L1.83205 12.1671C1.8385 12.0783 1.8498 11.9896 1.8611 11.9105C1.86594 11.8718 1.87078 11.8363 1.87401 11.8024L1.91596 11.4764L2.23548 11.5168L2.19353 11.8395C2.1903 11.8718 2.18546 11.9105 2.179 11.9525C2.16932 12.0251 2.15803 12.1074 2.15157 12.1913L2.12414 12.5511L3.68624 12.6254L3.6701 12.9481H3.67171Z" fill="white"/>
<path d="M2.97126 11.97L2.65012 11.9377L2.66626 11.7779C2.66626 11.7779 2.67272 11.7134 2.68885 11.6166L2.74856 11.2842C2.76793 11.1664 2.79536 11.0453 2.81634 10.9582V10.955L1.29297 10.5887L1.36881 10.2756L3.20364 10.7162L3.13424 11.0211C3.11165 11.1212 3.08583 11.2293 3.06808 11.339L3.00837 11.673C2.99546 11.7537 2.98901 11.8102 2.98901 11.8118L2.97287 11.9716L2.97126 11.97Z" fill="white"/>
<path d="M4.66144 13.3036L4.33862 13.2955L4.36929 12.553C4.40964 12.0188 4.49196 11.5249 4.62109 11.0407C4.81156 10.3273 5.08273 9.65267 5.42814 9.03612C5.59601 8.72623 5.80907 8.40021 6.09477 8.01284C6.32559 7.70618 6.59837 7.39629 6.93088 7.06381C7.5168 6.48761 8.20763 5.9792 8.93075 5.59345C9.59092 5.24483 10.2898 4.97852 10.9516 4.82519C11.6021 4.67024 12.1347 4.61536 12.4673 4.59761C12.5819 4.58954 12.6852 4.58793 12.7707 4.58631C12.8159 4.58631 12.8563 4.58631 12.8902 4.58308C12.9999 4.57824 13.058 4.58308 13.058 4.58308L13.2194 4.59277L13.2017 4.91396L13.0403 4.90427C13.0403 4.90427 12.9886 4.90266 12.9063 4.90427C12.8708 4.90589 12.8256 4.9075 12.7755 4.9075C12.6948 4.9075 12.5996 4.91073 12.4882 4.9188C12.1654 4.93655 11.6537 4.9882 11.0259 5.1383C10.3883 5.28679 9.71682 5.5418 9.08086 5.87752C8.38518 6.24874 7.71856 6.73778 7.15685 7.29138C6.83726 7.61257 6.57254 7.91116 6.35303 8.20491C6.07701 8.57936 5.87202 8.89248 5.709 9.19107C5.37649 9.78664 5.11501 10.4371 4.931 11.123C4.80833 11.5879 4.72924 12.0624 4.68888 12.5772L4.65822 13.3036H4.66144Z" fill="white"/>
<path d="M3.66559 13.2922L3.34277 13.2841L3.37667 12.4771C3.42186 11.8832 3.51387 11.3312 3.65752 10.7905C3.86897 9.99642 4.17081 9.24429 4.55819 8.5535C4.74704 8.20649 4.99077 7.83365 5.3023 7.4124C5.56217 7.067 5.86723 6.7216 6.23363 6.35523C6.88573 5.71285 7.65728 5.14795 8.46271 4.71701C9.19552 4.32965 9.97513 4.03267 10.7176 3.85836C11.4391 3.68566 12.0347 3.62594 12.4076 3.60496C12.5399 3.59528 12.6562 3.59366 12.7514 3.59205C12.7998 3.59205 12.8434 3.59205 12.8805 3.58882C13.0016 3.58398 13.0645 3.58882 13.0645 3.58882L13.2259 3.59689L13.2098 3.91808L13.0484 3.91001C13.0484 3.91001 12.9919 3.90839 12.8967 3.91001C12.8579 3.91162 12.8111 3.91324 12.7578 3.91324C12.6675 3.91324 12.5561 3.91646 12.4286 3.92615C12.067 3.94552 11.4924 4.00524 10.7919 4.17148C10.0752 4.33933 9.32142 4.62501 8.61444 5.00108C7.83483 5.41588 7.09072 5.96302 6.46122 6.5828C6.10612 6.93788 5.81235 7.27198 5.56217 7.60447C5.26033 8.01119 5.02467 8.37273 4.84228 8.70844C4.4678 9.37664 4.17565 10.1046 3.97227 10.8728C3.83346 11.3941 3.74469 11.9268 3.7011 12.5014L3.68012 12.7725L3.66721 13.2938L3.66559 13.2922Z" fill="white"/>
<path d="M0.322821 13.2518L0 13.2438L0.016141 12.5869L0.0435808 12.214C0.104917 11.4183 0.229203 10.6759 0.422895 9.94151C0.700521 8.89079 1.12019 7.84815 1.6367 6.92332C1.90303 6.43589 2.23231 5.93394 2.63906 5.38679C2.99255 4.91711 3.41383 4.43937 3.88999 3.96485C4.76645 3.10136 5.80432 2.33955 6.889 1.76174C7.86715 1.24364 8.91793 0.843366 9.92997 0.604494C10.8904 0.373691 11.6974 0.291377 12.2059 0.262325C12.3947 0.249413 12.5577 0.246185 12.6885 0.242957C12.7466 0.242957 12.7982 0.241343 12.845 0.239729C13 0.234887 13.0823 0.238115 13.0823 0.238115L13.2437 0.244571L13.2308 0.567372L13.0694 0.560915C13.0694 0.560915 12.9919 0.557687 12.8563 0.56253C12.8095 0.564144 12.7563 0.565758 12.6949 0.565758C12.5674 0.567372 12.4092 0.5706 12.2268 0.583512C11.7297 0.61095 10.9436 0.69165 10.0058 0.917611C9.01962 1.15003 7.99466 1.54062 7.04072 2.0458C5.98349 2.60909 4.97144 3.35153 4.11758 4.19404C3.65272 4.65726 3.24112 5.12371 2.89732 5.58047C2.50025 6.11309 2.17904 6.60375 1.91917 7.07827C1.41557 7.98049 1.00559 8.99732 0.736032 10.0222C0.547181 10.7372 0.426124 11.4603 0.366402 12.235L0.332506 12.8629L0.322821 13.2486V13.2518Z" fill="white"/>
<path d="M1.31672 13.2629L0.993896 13.2549L1.01327 12.5963L1.03586 12.2913C1.09236 11.5553 1.20696 10.8694 1.38612 10.1931C1.64761 9.20854 2.0237 8.27081 2.50631 7.40731C2.75004 6.96185 3.05349 6.49702 3.43281 5.9886C3.75724 5.55767 4.14624 5.11543 4.58851 4.6748C5.39879 3.87749 6.35595 3.17378 7.35831 2.63955C8.26382 2.16019 9.2339 1.79058 10.1652 1.57107C11.0546 1.35803 11.7987 1.28217 12.2668 1.25473C12.4395 1.24182 12.588 1.2402 12.7075 1.23698C12.7639 1.23698 12.8124 1.23536 12.856 1.23375C13.0012 1.22891 13.0771 1.23213 13.0771 1.23213L13.2385 1.23859L13.2256 1.55978L13.0642 1.55332C13.0642 1.55332 12.9932 1.55009 12.8689 1.55493C12.8253 1.55655 12.772 1.55816 12.7139 1.55816C12.5977 1.55978 12.454 1.563 12.2878 1.5743C11.831 1.60013 11.1079 1.67437 10.2411 1.88258C9.33559 2.09563 8.39134 2.45555 7.51004 2.922C6.53512 3.44171 5.60378 4.12604 4.8161 4.90077C4.38513 5.33009 4.00582 5.75942 3.69107 6.17906C3.32144 6.67456 3.02767 7.12648 2.78878 7.56064C2.32553 8.39024 1.94945 9.32798 1.69765 10.2722C1.52332 10.9291 1.41195 11.5957 1.35707 12.3123L1.33286 12.648L1.31672 13.2597V13.2629Z" fill="white"/>
<path d="M17.976 5.33962L17.7017 5.17341L18.6844 3.55493L19.267 3.92768L19.8334 4.33109L19.6462 4.59411L19.0862 4.19555L18.7877 4.00514L17.976 5.33962Z" fill="white"/>
<path d="M19.889 5.82707L19.7696 5.72218C19.7696 5.72218 19.5872 5.56082 19.4016 5.40591L19.1467 5.20582C19.0724 5.14612 19.0256 5.11384 19.024 5.11223L18.8933 5.01864L19.0821 4.75723L19.2128 4.85082C19.2128 4.85082 19.2661 4.88793 19.3403 4.94925L19.6034 5.1558C19.6986 5.23487 19.7905 5.31555 19.8616 5.37525L20.9121 4.21021L21.1525 4.42643L19.889 5.82868V5.82707Z" fill="white"/>
<path d="M19.8438 6.89552L19.6211 6.66315L20.9847 5.35449L21.2106 5.59008C21.2849 5.66431 21.3785 5.77081 21.4591 5.86602C21.4898 5.90152 21.5189 5.9354 21.5479 5.96929C21.6044 6.03383 21.6576 6.09515 21.698 6.14679L21.8997 6.40174L21.6463 6.60183L21.4446 6.34527C21.4059 6.29686 21.3575 6.24038 21.3058 6.18068C21.2752 6.14679 21.2445 6.11129 21.2139 6.07418C21.1428 5.99027 21.0509 5.88538 20.9799 5.81438L20.975 5.80954L19.8454 6.8939L19.8438 6.89552Z" fill="white"/>
<path d="M21.5641 7.85753L21.3947 7.59128L21.2042 7.32342C21.1445 7.23467 21.0735 7.14108 21.009 7.06201L20.8137 6.81351L21.0671 6.61342L21.2623 6.8603C21.3301 6.9426 21.406 7.04426 21.4705 7.13785L21.6625 7.40894L22.9729 6.55371L23.1488 6.8248L21.5657 7.85753H21.5641Z" fill="white"/>
<path d="M23.0683 9.0535L22.9344 8.7566C22.9215 8.72755 22.9053 8.69205 22.8876 8.65494C22.8569 8.58716 22.8247 8.51132 22.7859 8.43871L22.6213 8.11598L21.2513 8.87278L21.0947 8.59039L22.7407 7.6803L22.8214 7.811C22.8214 7.811 22.8602 7.87232 22.907 7.96914L23.0716 8.28864C23.1135 8.36609 23.1506 8.45 23.1829 8.52423C23.199 8.55973 23.2136 8.592 23.2265 8.62105L23.362 8.92119L23.0683 9.0535Z" fill="white"/>
<path d="M22.6668 10.2446L22.5507 9.9009C22.5248 9.82506 22.4942 9.73309 22.4571 9.64272L22.3328 9.32645C22.3021 9.25061 22.2779 9.20058 22.2763 9.19736L22.2053 9.05213L22.4958 8.91174L22.5668 9.05697C22.5668 9.05697 22.5958 9.11506 22.633 9.20543L22.7572 9.52009C22.7976 9.61529 22.8315 9.71695 22.8589 9.79763L22.8718 9.83797L24.3613 9.35065L24.4613 9.65724L22.6668 10.2446Z" fill="white"/>
<path d="M23.7995 11.786L23.7801 11.6262C23.7801 11.6262 23.7721 11.5633 23.7559 11.4746L23.6914 11.1163C23.6768 11.034 23.6575 10.9534 23.6413 10.8807C23.6317 10.8404 23.6236 10.8033 23.6155 10.7694L22.097 11.1454L22.0195 10.8323L23.8544 10.3789L23.9286 10.6984C23.9367 10.7339 23.9447 10.7694 23.9528 10.8065C23.9722 10.884 23.9915 10.9727 24.0077 11.0615L24.0706 11.4165C24.09 11.5181 24.098 11.5891 24.098 11.5891L24.1174 11.7489L23.7979 11.7876L23.7995 11.786Z" fill="white"/>
<path d="M23.1122 12.8384L23.0638 12.1929L23.0024 11.7153L23.322 11.6749L23.3833 12.1606L23.4107 12.4995L24.9777 12.4124L24.9954 12.7351L23.1122 12.8384Z" fill="white"/>
<path d="M15.7727 4.32594L15.4629 4.23558L15.9922 2.42346L16.3053 2.51221C16.3714 2.53319 16.4473 2.55901 16.5296 2.58644L16.6554 2.63001C16.7539 2.66228 16.8959 2.71069 17.0072 2.75749L17.3074 2.87528L17.1896 3.17542L16.8862 3.05601C16.8039 3.02051 16.6893 2.98017 16.5554 2.9366L16.4263 2.89303C16.3488 2.86721 16.2762 2.84139 16.2149 2.82364L15.776 4.32756L15.7727 4.32594Z" fill="white"/>
<path d="M17.7418 4.30655L17.5966 4.2291C17.5966 4.2291 17.3836 4.11453 17.169 4.02255C16.9511 3.91928 16.7284 3.83537 16.7252 3.83537L16.5735 3.77889L16.6864 3.47714L16.8381 3.53362C16.8478 3.53685 17.077 3.62237 17.3013 3.73048C17.411 3.77728 17.5191 3.82891 17.6031 3.87087L18.3163 2.47668L18.6036 2.62353L17.7418 4.30816V4.30655Z" fill="white"/>
<path d="M13.3809 3.91592L13.0581 3.90785L13.1017 2.0199L13.4277 2.02797C13.5148 2.02797 13.6358 2.03442 13.7988 2.04894L14.4895 2.11833L14.4491 2.43783L14.1264 2.39749L13.773 2.37006C13.6197 2.35715 13.5051 2.35069 13.4244 2.35069H13.418L13.3825 3.91592H13.3809Z" fill="white"/>
<path d="M15.2805 3.38502L15.0788 3.33822C15.053 3.33177 15.0191 3.32532 14.9804 3.31886L14.6479 3.25916C14.564 3.24141 14.4817 3.23172 14.4107 3.22366C14.3784 3.22043 14.3478 3.21559 14.3203 3.21236L14.0105 3.17363L14.0508 2.85413L14.4494 2.90416C14.5285 2.91384 14.6189 2.92513 14.7076 2.94288L15.032 3.00097L15.3596 1.46802L15.6759 1.53579L15.2805 3.38663V3.38502Z" fill="white"/>
<path d="M21.3385 13.2421L21.3304 12.9306C21.3304 12.8531 21.324 12.7514 21.3127 12.6223L21.3046 12.5158C21.2756 12.1865 21.2158 11.6733 21.0512 11.0648C21.0383 11.0212 21.0254 10.9728 21.0109 10.9244C20.9818 10.8227 20.9527 10.7162 20.9156 10.6145L20.9092 10.5967L20.7381 10.1303C20.7009 10.0254 20.6541 9.92531 20.6057 9.8204C20.5767 9.75746 20.5476 9.69451 20.5202 9.62995L20.2619 9.14091C19.8745 8.45334 19.3693 7.79967 18.7995 7.24929C18.5348 6.98782 18.2298 6.73281 17.865 6.46811C17.5793 6.25668 17.2516 6.05493 16.8626 5.84834C16.5285 5.66595 16.1879 5.53038 15.857 5.40126C15.5697 5.3028 15.2307 5.19144 14.916 5.12365C14.4479 5.0139 13.9701 4.94449 13.4504 4.91221L13.0323 4.90092C12.9484 4.90092 12.9032 4.90092 12.8984 4.90253L12.7386 4.91383L12.7144 4.59264L12.8742 4.57973C12.8742 4.57973 12.9306 4.57489 13.0388 4.5765L13.4633 4.5878C14.0056 4.62169 14.5012 4.69271 14.9854 4.8073C15.3131 4.87832 15.6633 4.99291 15.9635 5.09621C16.3122 5.2334 16.6625 5.37059 17.0127 5.56266C17.4146 5.77571 17.7552 5.98553 18.0522 6.20503C18.4299 6.47941 18.7479 6.74411 19.0207 7.01688C19.6114 7.58662 20.136 8.26612 20.5379 8.97789L20.6106 9.10217L20.8091 9.49115C20.8398 9.56216 20.8672 9.62349 20.8963 9.68321C20.9447 9.78974 20.9963 9.9011 21.0367 10.0141L21.1319 10.253L21.2126 10.4918C21.2578 10.6145 21.2885 10.7275 21.3191 10.8356C21.3321 10.8824 21.345 10.9292 21.3579 10.9744C21.5322 11.6103 21.5919 12.143 21.6226 12.4867L21.6307 12.5949C21.642 12.7321 21.65 12.8402 21.6484 12.9274L21.6565 13.2324L21.3337 13.2405L21.3385 13.2421Z" fill="white"/>
<path d="M22.3327 13.2228L22.3246 12.8952C22.3246 12.8032 22.3149 12.6789 22.3036 12.5207L22.2971 12.4319C22.2455 11.8557 22.1535 11.3231 22.0131 10.8066C21.9985 10.7598 21.9856 10.7098 21.9711 10.6582C21.9388 10.5403 21.9049 10.4193 21.8613 10.3015L21.7419 9.9609L21.6628 9.76077C21.6192 9.64133 21.566 9.52673 21.5111 9.40407C21.4804 9.3379 21.4497 9.27011 21.4207 9.20232L21.1301 8.65194C20.6976 7.88206 20.1326 7.15092 19.4951 6.53598C19.1965 6.24062 18.8543 5.95494 18.4507 5.66119C18.1279 5.42232 17.7615 5.19636 17.3289 4.96879C16.9658 4.77026 16.6026 4.625 16.2007 4.46683C15.9069 4.36515 15.5163 4.23603 15.1483 4.15533C14.6237 4.03266 14.0878 3.95519 13.51 3.91968L13.0435 3.90677C13.008 3.90516 12.9821 3.90677 12.9596 3.90677L12.7239 3.91323L12.7158 3.59043L12.9499 3.58397C12.9789 3.58397 13.0144 3.58236 13.058 3.58397L13.5261 3.59688C14.1282 3.634 14.6818 3.7147 15.2225 3.8406C15.6051 3.92452 16.007 4.05687 16.3153 4.1634C16.7188 4.32157 17.1062 4.47651 17.4855 4.68311C17.9294 4.91875 18.3087 5.15278 18.6444 5.39972C19.0609 5.70154 19.4144 5.99852 19.7243 6.30357C20.3828 6.93787 20.9687 7.69484 21.4142 8.49054L21.4949 8.62935L21.7161 9.06351C21.7484 9.13937 21.779 9.20393 21.8081 9.26688C21.8646 9.38954 21.9227 9.51544 21.9695 9.64294L22.1035 9.9948L22.1696 10.1901C22.2164 10.316 22.252 10.4435 22.2858 10.5678C22.3004 10.6178 22.3133 10.6662 22.3278 10.7146C22.4747 11.2521 22.5699 11.8025 22.6232 12.4013L22.6297 12.4917C22.6426 12.6579 22.6522 12.7886 22.6522 12.8887L22.6603 13.2115L22.3375 13.2196L22.3327 13.2228Z" fill="white"/>
<path d="M25.6771 13.1614L25.6674 12.7757C25.6674 12.6288 25.6497 12.4061 25.6287 12.1494C25.5609 11.3715 25.4334 10.6484 25.2413 9.93987C24.9524 8.87947 24.5472 7.89331 24.0388 7.00561C23.4513 5.96135 22.6846 4.97035 21.8194 4.13591C21.4094 3.73241 20.9333 3.33375 20.4022 2.94962C19.9503 2.61875 19.4531 2.31047 18.8801 2.00865C18.362 1.72782 17.8358 1.51638 17.3467 1.32754C16.7931 1.13386 16.3218 0.993444 15.9102 0.901446C15.1919 0.731975 14.4639 0.628679 13.6859 0.581873C13.4874 0.573803 13.3195 0.570575 13.1856 0.567347L13.0564 0.564119C13.008 0.562505 12.9676 0.564119 12.937 0.564119L12.6771 0.568961L12.6707 0.24616L12.9273 0.241318C12.9644 0.241318 13.0112 0.239704 13.0661 0.241318L13.192 0.244546C13.3276 0.247774 13.4987 0.251002 13.7021 0.259072C14.5027 0.307492 15.2468 0.414016 15.9812 0.586715C16.4041 0.681941 16.8867 0.823974 17.4565 1.02411C17.9617 1.21779 18.4976 1.43568 19.0318 1.72297C19.6178 2.03286 20.1294 2.34921 20.5927 2.68815C21.135 3.08035 21.6241 3.49031 22.0454 3.90349C22.9315 4.75892 23.7192 5.77574 24.3196 6.84583C24.841 7.75451 25.2574 8.76649 25.5544 9.85433C25.7514 10.5806 25.8821 11.3231 25.9515 12.122C25.9725 12.398 25.9902 12.6159 25.9902 12.7708L25.9999 13.1534L25.6771 13.1614Z" fill="white"/>
<path d="M24.6812 13.1792L24.6716 12.8096C24.6716 12.6821 24.657 12.4949 24.6393 12.2609V12.2318C24.5731 11.5136 24.4569 10.847 24.2809 10.1966C24.013 9.21686 23.6401 8.30818 23.172 7.49472C22.6313 6.53277 21.9243 5.61924 21.127 4.84936C20.746 4.4733 20.3183 4.11661 19.8212 3.75668C19.408 3.45325 18.9495 3.16919 18.4169 2.88835C17.9262 2.62204 17.4307 2.42513 17.0046 2.2605C16.48 2.07812 16.0587 1.95223 15.6826 1.8683C15.0208 1.71335 14.351 1.61651 13.6327 1.57293C13.4584 1.56648 13.3066 1.56325 13.1856 1.56002L13.0516 1.55679C13.0064 1.55518 12.9709 1.55679 12.9435 1.55679L12.6917 1.56325L12.6836 1.24045L12.9338 1.23399C12.9677 1.23399 13.0113 1.23238 13.0645 1.23399L13.1953 1.23722C13.3179 1.24045 13.4713 1.24368 13.6521 1.25013C14.3929 1.29533 15.0805 1.39378 15.7585 1.55357C16.1458 1.63911 16.5784 1.76823 17.1192 1.95707C17.5921 2.13945 18.0908 2.3412 18.5735 2.60267C19.1174 2.88996 19.5887 3.1821 20.0149 3.4936C20.5249 3.86321 20.964 4.2312 21.3562 4.61695C22.1745 5.4062 22.9025 6.34716 23.4577 7.33332C23.9387 8.16937 24.3213 9.10388 24.5973 10.1094C24.7797 10.7792 24.8991 11.4636 24.9637 12.2028V12.2334C24.9847 12.4755 24.9992 12.6676 24.9992 12.8032L25.0089 13.1679L24.6861 13.176L24.6812 13.1792Z" fill="white"/>
<path d="M8.96755 16.7581V14H11.7256V16.3211H13.7302V13.9398H15.9155V16.6978H18.7188V14H15.9155V11.5283H14.2727V9.88552H15.9155V11.5283H18.7188V7.51929H13.5192V9.13194H11.8764V7.51929H7.27954V12.2065H8.75655V13.8493H7.27954V18.9586H11.3338V16.7581H8.96755ZM11.9819 12.2517H13.6247V13.8945H11.9819V12.2517ZM9.44984 9.88552H11.0926V11.5283H9.44984V9.88552ZM15.9155 18.9736H13.8357V16.6376H15.9155V18.9736Z" fill="white"/>
</svg>
