<svg width="26" height="27" viewBox="0 0 26 27" fill="none" xmlns="http://www.w3.org/2000/svg">
<ellipse cx="12.9992" cy="13.2389" rx="12.9992" ry="12.9992" fill="#FACA20"/>
<path d="M21.6806 20.3518L21.4272 20.1517L21.629 19.8951C21.6984 19.8095 21.7759 19.7062 21.8388 19.6126L22.047 19.3172L20.7332 18.4602L20.9091 18.1907L22.4909 19.222L22.2811 19.5448L22.1019 19.7966C22.0341 19.8951 21.9518 20.0048 21.8792 20.0952L21.679 20.3502L21.6806 20.3518Z" fill="white"/>
<path d="M21.5483 21.6656L20.186 20.3583L20.4023 20.1307C20.4685 20.0645 20.5492 19.9709 20.6218 19.887C20.6509 19.8531 20.68 19.8192 20.709 19.7869C20.7558 19.7321 20.801 19.682 20.8349 19.6384L21.0302 19.3899L21.2836 19.59L21.0899 19.837C21.0528 19.8838 21.0044 19.9403 20.9527 20C20.9253 20.0323 20.8962 20.0645 20.8688 20.0968C20.7962 20.1824 20.7122 20.2776 20.6428 20.3486L21.7727 21.4332L21.5483 21.6656Z" fill="white"/>
<path d="M19.5484 22.35L19.3611 22.0885L19.4919 21.9949C19.4919 21.9949 19.5435 21.9577 19.6162 21.8996L19.9019 21.6753C20.0003 21.593 20.0972 21.5091 20.1714 21.4461L19.1255 20.284L19.366 20.0677L20.6314 21.4735L20.5088 21.5817C20.5088 21.5817 20.3102 21.7576 20.1069 21.9271L19.8179 22.1547C19.7372 22.2192 19.6824 22.2596 19.6824 22.2596L19.5516 22.3532L19.5484 22.35Z" fill="white"/>
<path d="M19.0899 23.5879L18.1101 21.9771L18.6541 21.6284L19.1786 21.2556L19.3659 21.5187L18.8348 21.8948L18.5491 22.0788L19.3643 23.4216L19.0899 23.5879Z" fill="white"/>
<path d="M16.977 23.73L16.864 23.4281L17.0157 23.3716C17.0157 23.3716 17.2595 23.2796 17.4871 23.1715C17.6081 23.1199 17.7259 23.0618 17.8131 23.0182L17.0997 21.6237L17.387 21.4768L18.2457 23.1554L18.1069 23.2296C18.0972 23.2345 17.8664 23.3587 17.6194 23.4636C17.3838 23.575 17.1384 23.6686 17.1271 23.6719L16.9754 23.7283L16.977 23.73Z" fill="white"/>
<path d="M16.212 24.8065L15.6826 22.9908L15.9861 22.9052C16.0377 22.8891 16.1023 22.8681 16.1717 22.8439L16.2992 22.8003C16.4251 22.76 16.53 22.7212 16.6027 22.6905L16.898 22.5743L17.0175 22.8745L16.7253 22.9908C16.6269 23.0327 16.4929 23.0779 16.4009 23.1086L16.2782 23.1505C16.2072 23.1747 16.1426 23.1973 16.0861 23.2135L16.5252 24.7161L16.2153 24.8065H16.212Z" fill="white"/>
<path d="M14.1409 24.403L14.1006 24.0834L14.5154 24.0302C14.5929 24.0205 14.6817 24.0092 14.7704 23.9914L15.1288 23.9269L14.8011 22.3952L15.1175 22.3274L15.5113 24.1722L15.3128 24.2174C15.2853 24.2238 15.2401 24.2335 15.1869 24.2432L14.8318 24.3062C14.7365 24.3255 14.6413 24.3368 14.5558 24.3481L14.1426 24.4014L14.1409 24.403Z" fill="white"/>
<path d="M13.121 25.2407L13.0774 23.3523L13.3905 23.3443C13.468 23.3443 13.5745 23.3378 13.7166 23.3265L14.3574 23.262L14.3977 23.5815L14.0862 23.6219L13.7424 23.6493C13.5971 23.6622 13.489 23.6671 13.4067 23.6687L13.4422 25.2343L13.1194 25.2423L13.121 25.2407Z" fill="white"/>
<path d="M23.214 17.8775L22.9235 17.7387L22.9929 17.5934C22.9929 17.5934 23.0203 17.5353 23.0558 17.4514L23.1882 17.1173C23.2285 17.0188 23.2641 16.9172 23.2915 16.8348L23.3092 16.7832L21.821 16.2974L21.9211 15.9907L23.7192 16.5782L23.5982 16.9381C23.5691 17.0253 23.532 17.1334 23.4884 17.24L23.3561 17.5741C23.3157 17.6725 23.285 17.7355 23.285 17.7355L23.2156 17.8807L23.214 17.8775Z" fill="white"/>
<path d="M23.4351 19.18L21.7742 18.2616L21.8646 18.118C21.8646 18.118 21.8952 18.0695 21.9291 17.9985L22.0841 17.6967C22.1212 17.6273 22.1503 17.5595 22.1777 17.4982C22.1938 17.4611 22.21 17.4272 22.2245 17.3965L22.352 17.1124L22.6458 17.2448L22.5167 17.5305C22.5021 17.5611 22.4876 17.5934 22.4731 17.6273C22.4424 17.6951 22.4085 17.7726 22.3698 17.8452L22.2197 18.1389L23.5917 18.8975L23.4351 19.18Z" fill="white"/>
<path d="M24.0775 15.0789L23.7563 15.0385L23.8435 14.3558L23.8709 14.0039L22.3101 13.9184L22.3278 13.5956L24.2179 13.6989L24.1647 14.3881L24.0775 15.0789Z" fill="white"/>
<path d="M24.615 16.2861L22.783 15.8326L22.8524 15.5291C22.8588 15.5001 22.8669 15.463 22.8766 15.4258C22.8927 15.3597 22.9105 15.2854 22.9234 15.2112L22.9831 14.8787C22.9992 14.7964 23.0057 14.7399 23.0057 14.7383L23.0251 14.5785L23.3447 14.6156L23.3269 14.7754C23.3269 14.7754 23.3188 14.8416 23.3011 14.9384L23.243 15.2677C23.2301 15.3484 23.2107 15.4307 23.1929 15.5033C23.1849 15.5372 23.1768 15.5695 23.1703 15.5985L24.6941 15.9762L24.6166 16.2893L24.615 16.2861Z" fill="white"/>
<path d="M12.9887 21.898C12.9161 21.898 12.8773 21.8948 12.8773 21.8948L12.7175 21.8819L12.7417 21.5607L12.9015 21.572C12.9015 21.572 12.9516 21.5752 13.0371 21.5736L13.46 21.5623C13.9733 21.53 14.4511 21.4606 14.9176 21.3509C15.2339 21.2815 15.5745 21.1701 15.865 21.07C16.1911 20.9409 16.5317 20.8069 16.8642 20.6262C17.2548 20.4196 17.5824 20.2162 17.8665 20.0064C18.2329 19.7401 18.538 19.4851 18.7995 19.2252C19.3709 18.6732 19.8761 18.0212 20.2619 17.3352L20.4459 16.9914L20.5266 16.8333C20.5492 16.7784 20.5782 16.7154 20.6073 16.6525C20.6557 16.5476 20.7009 16.4475 20.7364 16.3491L20.8349 16.0989L20.9107 15.8729C20.9527 15.7567 20.9834 15.6518 21.0108 15.5485C21.0237 15.5001 21.0382 15.4517 21.0512 15.4049C21.2158 14.7996 21.2739 14.288 21.3046 13.9555L21.3126 13.8522C21.3223 13.7231 21.3304 13.6214 21.3304 13.5504L21.3385 13.2324L21.6613 13.2405L21.6532 13.552C21.6532 13.6311 21.6468 13.7392 21.6355 13.8764L21.6274 13.9813C21.5967 14.3283 21.5354 14.8593 21.3627 15.492C21.3481 15.5404 21.3352 15.5873 21.3223 15.6341C21.2917 15.7422 21.261 15.8552 21.2174 15.9698L21.0382 16.4604C20.9995 16.5686 20.9495 16.6783 20.8994 16.7865C20.872 16.8462 20.8445 16.9059 20.8171 16.9688L20.6186 17.3594L20.5411 17.4934C20.1408 18.2052 19.6162 18.8831 19.0238 19.4544C18.7511 19.7239 18.4331 19.9903 18.0554 20.2646C17.76 20.4825 17.4194 20.694 17.0159 20.9086C16.6672 21.0991 16.317 21.2379 15.978 21.3702C15.6681 21.4768 15.3179 21.5914 14.9886 21.664C14.5076 21.777 14.012 21.848 13.4745 21.8819L13.0452 21.8932C13.0258 21.8932 13.0065 21.8932 12.9903 21.8932L12.9887 21.898Z" fill="white"/>
<path d="M13.0048 22.8939C12.9822 22.8939 12.9628 22.8939 12.9451 22.8939L12.7126 22.8874L12.7207 22.5646L12.9564 22.5711C12.9774 22.5711 13.0048 22.5727 13.0371 22.5711L13.5132 22.5582C14.0862 22.5226 14.6221 22.4452 15.1451 22.3225C15.5147 22.2418 15.907 22.1127 16.2056 22.0078C16.6026 21.8528 16.9658 21.706 17.3258 21.5091C17.7583 21.2799 18.1247 21.0539 18.4476 20.815C18.8527 20.5213 19.1949 20.2356 19.4919 19.9419C20.1311 19.3253 20.696 18.5942 21.1286 17.8259L21.2803 17.5483L21.424 17.2658C21.4498 17.2077 21.4805 17.1399 21.5095 17.0738C21.566 16.9527 21.6177 16.8381 21.6596 16.7219L21.792 16.3765L21.8582 16.1812C21.9034 16.0586 21.9373 15.9375 21.9695 15.8197C21.9841 15.768 21.9986 15.718 22.0131 15.668C22.1519 15.1563 22.2455 14.6237 22.2972 14.0443L22.3037 13.9571C22.3166 13.799 22.3263 13.6747 22.3246 13.5875L22.3327 13.2534L22.6555 13.2615L22.6475 13.5907C22.6475 13.6844 22.6378 13.8167 22.6249 13.9813L22.6184 14.0701C22.5651 14.6705 22.4683 15.2209 22.323 15.7551C22.3085 15.8068 22.294 15.8568 22.2794 15.9068C22.2455 16.0311 22.2084 16.1586 22.1616 16.2877L22.0276 16.6654L21.9599 16.8365C21.9147 16.9608 21.8565 17.0867 21.8001 17.2093C21.771 17.2739 21.7403 17.3385 21.7129 17.4046L21.495 17.834L21.4062 17.9889C20.9607 18.7814 20.3748 19.5384 19.7146 20.1759C19.4063 20.4809 19.0528 20.7763 18.6348 21.0797C18.3007 21.3267 17.9197 21.5607 17.4759 21.7963C17.0998 22.0013 16.7269 22.1514 16.3137 22.3128C16.0006 22.421 15.5971 22.5549 15.2129 22.6389C14.6738 22.7647 14.1218 22.8454 13.5245 22.8826L13.0468 22.8955C13.0322 22.8955 13.0161 22.8955 13.0032 22.8955L13.0048 22.8939Z" fill="white"/>
<path d="M13.0048 26.238C12.9757 26.238 12.9499 26.238 12.9273 26.238L12.6707 26.2332L12.6771 25.9104L12.937 25.9152C12.9676 25.9152 13.008 25.9169 13.0532 25.9152L13.1839 25.912C13.3179 25.9088 13.4874 25.9056 13.6875 25.8975C14.4623 25.8507 15.1887 25.7458 15.9069 25.5779C16.3185 25.4859 16.7898 25.3455 17.3483 25.1502C17.8342 24.963 18.3588 24.7515 18.8769 24.4723C19.4515 24.1689 19.9487 23.8606 20.4006 23.5314C20.9316 23.1472 21.4078 22.7486 21.8178 22.3467C22.6846 21.5106 23.4513 20.5196 24.0372 19.477C24.5472 18.5893 24.9508 17.6031 25.2413 16.5427C25.4334 15.8342 25.5609 15.1111 25.6287 14.3315C25.6481 14.0749 25.6658 13.8522 25.6674 13.7101L25.6771 13.3212L25.9999 13.3292L25.9902 13.715C25.9902 13.8667 25.9725 14.083 25.9515 14.359C25.8805 15.1595 25.7514 15.902 25.5544 16.6283C25.2574 17.7145 24.8426 18.7281 24.3196 19.6384C23.7192 20.7069 22.9315 21.7237 22.0454 22.5807C21.6257 22.9939 21.1366 23.4022 20.5943 23.7961C20.131 24.135 19.621 24.4513 19.0335 24.7612C18.5008 25.0485 17.9649 25.2664 17.4645 25.4585C16.8883 25.6602 16.4057 25.8039 15.9828 25.8975C15.2484 26.0702 14.5043 26.1767 13.7069 26.2251C13.5003 26.2332 13.3292 26.238 13.1936 26.2397L13.0661 26.2429C13.0451 26.2429 13.0258 26.2429 13.0064 26.2429L13.0048 26.238Z" fill="white"/>
<path d="M13.0032 25.2438C12.9758 25.2438 12.9516 25.2438 12.9306 25.2438L12.6804 25.2374L12.6885 24.9146L12.9403 24.921C12.9677 24.921 13.0049 24.9226 13.0468 24.921L13.184 24.9178C13.3051 24.9146 13.4568 24.9113 13.6344 24.9049C14.3494 24.8613 15.0193 24.7645 15.6794 24.6095C16.0571 24.5256 16.48 24.3997 17.0078 24.2157C17.4291 24.0527 17.9246 23.8558 18.4153 23.5911C18.948 23.3103 19.4064 23.0262 19.8196 22.7228C20.3184 22.3612 20.7445 22.0045 21.1254 21.6301C21.9244 20.8602 22.6314 19.9451 23.1705 18.9847C23.6386 18.1696 24.0114 17.261 24.2794 16.2813C24.4569 15.6308 24.5731 14.9642 24.6361 14.2444V14.217C24.6571 13.9813 24.6716 13.7957 24.6716 13.6714L24.6813 13.2986L25.0041 13.3067L24.9944 13.6763C24.9944 13.8086 24.9799 14.0007 24.9605 14.2428V14.2718C24.8927 15.0127 24.7733 15.697 24.5909 16.3668C24.3165 17.3723 23.9323 18.3068 23.4513 19.1445C22.8961 20.1307 22.1697 21.07 21.3498 21.8609C20.9592 22.245 20.5201 22.613 20.0085 22.9826C19.5839 23.2941 19.111 23.5862 18.5671 23.8735C18.0861 24.1334 17.5873 24.3368 17.1192 24.5175C16.5736 24.708 16.1411 24.8371 15.7521 24.9226C15.0758 25.0808 14.3881 25.1809 13.6521 25.2245C13.4681 25.2325 13.3148 25.2358 13.1921 25.2374L13.0597 25.2406C13.0404 25.2406 13.021 25.2406 13.0049 25.2406L13.0032 25.2438Z" fill="white"/>
<path d="M7.0245 22.7357L6.75172 22.5598C6.69361 22.5211 6.62904 22.4743 6.55964 22.4242L6.2917 22.2338L5.89624 21.9239L6.09478 21.6705L6.74526 22.1611C6.81144 22.208 6.87439 22.2531 6.92765 22.2887L7.78313 20.9749L8.0543 21.1508L7.0245 22.7341V22.7357Z" fill="white"/>
<path d="M4.81495 22.0175L4.58252 21.7947L5.88994 20.4309L6.11753 20.6472C6.17726 20.7069 6.2628 20.7811 6.34674 20.8522L6.36288 20.8651C6.54043 21.0249 6.73089 21.1701 6.73251 21.1717L6.86002 21.2702L6.6631 21.5268L6.53559 21.4284C6.52752 21.4219 6.33382 21.2734 6.14981 21.1072L6.1369 21.0959C6.04974 21.02 5.96581 20.949 5.90124 20.8844L4.81818 22.0159L4.81495 22.0175Z" fill="white"/>
<path d="M4.77446 20.878L4.32251 20.3534L4.09492 20.0629C4.03197 19.9838 3.99162 19.929 3.99162 19.929L3.89478 19.7998L4.15465 19.6078L4.25149 19.7369C4.25149 19.7369 4.29023 19.7885 4.34834 19.8628L4.5727 20.1485L4.80352 20.4164L5.96406 19.3689L6.18035 19.6078L4.77446 20.8764V20.878Z" fill="white"/>
<path d="M2.82461 19.6142L2.65674 19.3382L4.26762 18.3569L4.61626 18.9025L4.98912 19.4254L4.72602 19.6126L4.34993 19.0832L4.16593 18.7976L2.82461 19.6142Z" fill="white"/>
<path d="M3.08629 18.4972L2.93779 18.2067C2.89905 18.1357 2.8587 18.0453 2.81512 17.9485L2.78122 17.8726C2.66823 17.6338 2.57461 17.3884 2.57139 17.3787L2.51489 17.227L2.81673 17.1124L2.87322 17.2641C2.87322 17.2641 2.96523 17.5079 3.07499 17.737L3.1105 17.8161C3.15085 17.9049 3.18959 17.9921 3.2251 18.0566L3.22833 18.0631L4.62291 17.3481L4.7698 17.6354L3.0879 18.4972H3.08629Z" fill="white"/>
<path d="M3.36876 17.2658L3.13471 16.6493L3.02818 16.3329L1.52545 16.7735L1.43506 16.4637L3.25093 15.931L3.33647 16.2345L3.60926 16.9963L3.66898 17.1464L3.36876 17.2658Z" fill="white"/>
<path d="M2.06783 15.7616L2.02102 15.5631C2.01456 15.534 2.00326 15.4888 1.99519 15.4356L1.93224 15.0821C1.91126 14.9804 1.89834 14.8739 1.88866 14.7883L1.83862 14.3913L2.15822 14.351L2.20825 14.748C2.21794 14.8303 2.23085 14.9255 2.24861 15.0208L2.31317 15.3775L3.84495 15.0482L3.91275 15.3645L2.06783 15.76V15.7616Z" fill="white"/>
<path d="M2.66018 14.6479L2.61983 14.3364C2.61337 14.2735 2.60853 14.2025 2.60207 14.125L2.59239 13.9926C2.58432 13.8813 2.57302 13.7554 2.57302 13.6569L1.00734 13.694L0.999268 13.3712L2.88777 13.326L2.89584 13.6408C2.89584 13.7328 2.90552 13.8571 2.91521 13.9684L2.92489 14.1024C2.92974 14.175 2.93458 14.2428 2.94104 14.2993L2.98139 14.6076L2.6618 14.6495L2.66018 14.6479Z" fill="white"/>
<path d="M9.6749 23.9591L9.29235 23.83C9.21165 23.8025 9.11157 23.7687 9.01311 23.7283L8.67899 23.596C8.57892 23.5572 8.51597 23.5249 8.51597 23.5249L8.37231 23.4539L8.51436 23.165L8.65963 23.236C8.65963 23.236 8.71612 23.2635 8.79844 23.2958L9.13417 23.4281C9.22618 23.4668 9.31657 23.4959 9.39404 23.5233L9.46829 23.5491L9.95252 22.061L10.2592 22.1611L9.67328 23.9591H9.6749Z" fill="white"/>
<path d="M7.35376 23.8348L7.07129 23.6783L7.98649 22.0175L8.13014 22.1046C8.13014 22.1046 8.18018 22.1337 8.2512 22.1692L8.55304 22.3241C8.62083 22.3596 8.69024 22.3903 8.75157 22.4177C8.7887 22.4339 8.82259 22.4484 8.85326 22.4629L9.13734 22.592L9.00337 22.8858L8.71768 22.7567C8.68701 22.7421 8.65473 22.7276 8.62083 22.7131C8.55304 22.6824 8.47717 22.6501 8.40293 22.6114L8.10754 22.4597L7.35053 23.8332L7.35376 23.8348Z" fill="white"/>
<path d="M12.5529 24.4562L11.8621 24.403L11.1729 24.3158L11.2132 23.9962L11.896 24.0818L12.2478 24.1092L12.3318 22.5485L12.653 22.5662L12.5529 24.4562Z" fill="white"/>
<path d="M10.2787 24.9323L9.96558 24.8548L10.4159 23.0229L10.7194 23.0924C10.7484 23.0988 10.7855 23.1069 10.8243 23.1166C10.8888 23.1327 10.9631 23.1505 11.0373 23.1618L11.3715 23.2215C11.4538 23.2376 11.507 23.2441 11.5119 23.2441L11.6717 23.2602L11.6378 23.5814L11.478 23.5653C11.478 23.5653 11.4118 23.5588 11.3134 23.5394L10.9841 23.4813C10.905 23.4684 10.8227 23.449 10.75 23.4313C10.7161 23.4232 10.6839 23.4152 10.6532 23.4087L10.2787 24.9323Z" fill="white"/>
<path d="M13.0049 21.8997L12.6934 21.8916C12.6046 21.8916 12.4755 21.8836 12.3124 21.8707L12.2624 21.8674C11.7233 21.8206 11.2294 21.7351 10.7516 21.6044C10.0204 21.4042 9.34732 21.1282 8.7501 20.7861C8.03828 20.3858 7.35875 19.8628 6.78574 19.2705C6.21273 18.683 5.70913 17.989 5.3282 17.2627C5.13612 16.9124 4.99247 16.5461 4.86334 16.2233C4.75842 15.9166 4.64221 15.5664 4.56957 15.2355C4.45497 14.7481 4.38234 14.2509 4.35006 13.7216L4.33714 13.2922C4.33553 13.2503 4.33714 13.2148 4.33714 13.1873L4.34199 12.9727L4.66481 12.9807L4.65996 13.1986C4.65996 13.2196 4.65835 13.247 4.65996 13.2793L4.67288 13.707C4.70354 14.2138 4.77295 14.6916 4.88432 15.1629C4.95373 15.4792 5.0651 15.8198 5.16518 16.1103C5.29269 16.4331 5.42828 16.7736 5.61067 17.1093C5.97707 17.8098 6.46292 18.478 7.01494 19.0445C7.56535 19.6143 8.21906 20.1195 8.90667 20.5036C9.48129 20.8329 10.1286 21.0976 10.8339 21.2912C11.2923 21.4155 11.7669 21.4978 12.2866 21.543L12.335 21.5462C12.49 21.5592 12.611 21.5672 12.6934 21.5672L13.0113 21.5753L13.0033 21.8981L13.0049 21.8997Z" fill="white"/>
<path d="M12.9887 22.8923L12.6595 22.8843C12.5578 22.8843 12.3964 22.873 12.1994 22.8568H12.1785C11.5796 22.8036 11.0292 22.7083 10.4933 22.5631C9.67983 22.3403 8.92927 22.0337 8.26103 21.6495C7.46689 21.2041 6.70988 20.6198 6.0723 19.9613C5.43312 19.306 4.87141 18.5329 4.44851 17.7227C4.24191 17.345 4.08534 16.9576 3.93039 16.5622C3.82224 16.2475 3.68827 15.8456 3.60272 15.4615C3.4736 14.9159 3.3945 14.3623 3.35738 13.7732C3.35254 13.6425 3.34931 13.5327 3.3477 13.4407C3.3477 13.3858 3.34608 13.3374 3.34447 13.2971C3.34285 13.2503 3.34447 13.2099 3.34447 13.1792L3.34931 12.9581L3.67213 12.9646L3.66729 13.1889C3.66729 13.2131 3.66567 13.2438 3.66729 13.2825C3.66729 13.3261 3.67052 13.3762 3.67052 13.4326C3.67213 13.523 3.67536 13.6312 3.6802 13.7554C3.71571 14.3236 3.79319 14.8578 3.91747 15.3888C3.99979 15.7584 4.12892 16.149 4.23222 16.4492C4.38072 16.8285 4.53406 17.2046 4.7326 17.5693C5.14258 18.3537 5.68492 19.101 6.30312 19.7337C6.91971 20.3713 7.6509 20.9362 8.41921 21.3671C9.06485 21.7383 9.7912 22.0353 10.5773 22.25C11.0938 22.3904 11.6264 22.4824 12.2043 22.5324H12.2237C12.4125 22.5485 12.5578 22.5582 12.6611 22.5598L12.9952 22.5679L12.9871 22.8907L12.9887 22.8923Z" fill="white"/>
<path d="M12.9291 26.2365L12.5433 26.2268C12.3996 26.2268 12.1898 26.2123 11.8993 26.1881C11.1003 26.1187 10.3594 25.9895 9.62983 25.7926C8.54515 25.4973 7.53311 25.0841 6.61791 24.5612C5.54937 23.9607 4.53087 23.1747 3.67378 22.2886C2.81508 21.4074 2.05968 20.3664 1.4899 19.2769C1.19936 18.7394 0.973385 18.1826 0.790991 17.7097C0.589228 17.1351 0.445573 16.6525 0.350341 16.2297C0.176017 15.4888 0.0678722 14.7432 0.0210632 13.9539C0.0113786 13.7554 0.00815036 13.5891 0.00492215 13.4552L0.00169394 13.3132C7.98377e-05 13.2502 0.00169394 13.1986 0.00169394 13.1582L0.00815036 12.9177L0.330971 12.9258L0.324515 13.1679C0.324515 13.2018 0.322901 13.247 0.324515 13.3035L0.327743 13.4503C0.330971 13.5811 0.334199 13.7457 0.34227 13.9378C0.387465 14.706 0.492382 15.4323 0.663477 16.157C0.757095 16.5702 0.897522 17.0415 1.09283 17.5983C1.27038 18.0583 1.4899 18.6022 1.77398 19.1252C2.33085 20.1888 3.06688 21.204 3.9046 22.0627C4.74071 22.9262 5.73338 23.6928 6.77609 24.2787C7.66708 24.7887 8.65491 25.1922 9.71215 25.4795C10.4224 25.6716 11.1455 25.7975 11.9235 25.8637C12.2059 25.8862 12.4077 25.9008 12.5449 25.9008L12.9339 25.9105L12.9258 26.2333L12.9291 26.2365Z" fill="white"/>
<path d="M12.9467 25.2423L12.577 25.2326C12.435 25.2326 12.2235 25.2165 11.9814 25.1971C11.2422 25.1342 10.5578 25.0148 9.88632 24.8324C8.88235 24.5596 7.94778 24.1771 7.10684 23.6961C6.119 23.1425 5.17959 22.4162 4.38707 21.5979C3.59293 20.7845 2.89564 19.8225 2.36944 18.817C2.10795 18.3328 1.90458 17.8357 1.72541 17.3708C1.53495 16.8269 1.40582 16.3927 1.31866 16.0038C1.15725 15.3194 1.05717 14.6319 1.01359 13.9023C1.00552 13.7232 1.00229 13.5715 0.999063 13.4504L0.995835 13.3116C0.99422 13.2535 0.995835 13.2067 0.995835 13.1712L1.00068 12.9355L1.3235 12.9404L1.31866 13.1793C1.31866 13.2099 1.31704 13.2503 1.31866 13.3003L1.32188 13.444C1.32511 13.5634 1.32834 13.7119 1.3348 13.8862C1.37676 14.5947 1.47361 15.2646 1.63179 15.9311C1.71734 16.3104 1.84163 16.7317 2.02725 17.2595C2.20157 17.7098 2.39849 18.1956 2.65352 18.6653C3.16681 19.645 3.84473 20.5811 4.61789 21.3736C5.38781 22.1709 6.30301 22.8762 7.26502 23.4153C8.08337 23.8833 8.99372 24.2562 9.97026 24.5209C10.6224 24.6968 11.289 24.813 12.0073 24.876C12.2413 24.8953 12.4463 24.9098 12.5803 24.9098L12.9531 24.9195L12.9451 25.2423H12.9467Z" fill="white"/>
<path d="M5.05688 8.34036L3.47021 7.32031L3.55253 7.18474C3.55899 7.17505 3.69619 6.95232 3.85437 6.73766C4.00126 6.52138 4.16751 6.31802 4.17396 6.30995L4.27565 6.18567L4.52584 6.39065L4.42415 6.51493C4.42415 6.51493 4.25951 6.71668 4.11747 6.92488C4.03838 7.03141 3.96574 7.13955 3.91248 7.22186L5.2312 8.06921L5.05688 8.34036Z" fill="white"/>
<path d="M4.92791 7.14447L4.67289 6.94594L4.86658 6.699C4.92469 6.62153 5.01185 6.52146 5.08771 6.4343C5.11676 6.40041 5.14582 6.36813 5.17326 6.33585C5.22168 6.27936 5.26688 6.2261 5.30884 6.18252L4.1709 5.10598L4.39203 4.87195L5.76402 6.17122L5.54612 6.3988C5.50576 6.43915 5.46218 6.49079 5.41537 6.54567C5.38632 6.57957 5.35727 6.61346 5.3266 6.64735C5.25396 6.72967 5.17164 6.82328 5.11999 6.8943L4.92469 7.14447H4.92791Z" fill="white"/>
<path d="M6.58886 6.45686L5.31372 5.06236L5.43316 4.95422C5.43316 4.95422 5.4832 4.90903 5.56068 4.84285L5.83346 4.60721L6.37903 4.17627L6.57918 4.42967L6.04007 4.85577L5.77213 5.08657L6.82775 6.24058L6.58886 6.45847V6.45686Z" fill="white"/>
<path d="M6.78084 5.26894L6.57585 5.02038L6.70013 4.91708C6.70013 4.91708 6.75178 4.87512 6.8341 4.81702L7.10689 4.62333C7.17307 4.57491 7.24409 4.53134 7.30704 4.49099C7.3377 4.47162 7.36514 4.45386 7.39097 4.43772L6.56616 3.10294L6.84056 2.93347L7.83162 4.53941L7.57014 4.70726C7.54431 4.72502 7.51364 4.74439 7.47975 4.76537C7.42164 4.80249 7.35869 4.84284 7.29574 4.88642L7.02134 5.08171C6.95193 5.12852 6.90997 5.16403 6.90835 5.16564L6.78407 5.26732L6.78084 5.26894Z" fill="white"/>
<path d="M8.55634 5.03177L7.68311 3.35482L8.12376 3.13047L8.63704 2.89805L8.94695 2.77539L9.06639 3.0756L8.76294 3.19503L8.26418 3.42099L8.11891 3.49524L8.84203 4.88328L8.55634 5.03177Z" fill="white"/>
<path d="M9.03409 3.92937L8.91626 3.62916L9.27459 3.48874C9.35207 3.45808 9.44246 3.42257 9.53446 3.39352L9.8476 3.28699L9.39726 1.78597L9.70717 1.69397L10.2511 3.51134L10.0865 3.55169C10.0865 3.55169 10.03 3.56621 9.95413 3.59204L9.63615 3.70018C9.54899 3.72762 9.46667 3.7599 9.39565 3.78895L9.0357 3.93098L9.03409 3.92937Z" fill="white"/>
<path d="M10.8194 4.16343L10.4126 2.32024L10.729 2.24761L11.4585 2.12494L11.7814 2.08459L11.8217 2.40417L11.3326 2.46711L10.7968 2.56395L11.1341 4.09403L10.8194 4.16343Z" fill="white"/>
<path d="M11.5746 3.22886L11.5278 2.90929L11.6876 2.88508C11.6973 2.88508 11.9394 2.84796 12.1896 2.83505C12.3091 2.82375 12.4285 2.81729 12.5205 2.81245L12.4737 1.24687L12.7965 1.23718L12.853 3.1288H12.6884C12.6884 3.1288 12.4463 3.13364 12.2138 3.15623C11.9733 3.16915 11.7377 3.20465 11.7361 3.20465L11.5763 3.22886H11.5746Z" fill="white"/>
<path d="M4.05955 10.5517L2.25659 9.97709L2.36151 9.66559C2.37281 9.63331 2.38411 9.5978 2.39702 9.56068C2.42284 9.48482 2.45028 9.39928 2.48418 9.31696L2.61654 8.97963C2.65366 8.88279 2.68272 8.81985 2.68272 8.81985L2.75051 8.67297L3.04266 8.80855L2.97487 8.95542C2.97487 8.95542 2.94904 9.01353 2.91676 9.09746L2.78279 9.4364C2.75212 9.51387 2.7263 9.59296 2.70208 9.66397C2.68917 9.70271 2.67787 9.73822 2.66657 9.7705L4.15639 10.2466L4.05793 10.5549L4.05955 10.5517Z" fill="white"/>
<path d="M3.61895 9.43315L3.32518 9.29919L3.59473 8.70685L3.74969 8.40503L2.36963 7.65452L2.52297 7.37207L4.18065 8.27107L3.88527 8.84727L3.61895 9.43315Z" fill="white"/>
<path d="M3.67214 12.9484L1.78687 12.858L1.79332 12.6982C1.79332 12.6982 1.79655 12.6305 1.80462 12.5272L1.83206 12.1672C1.83852 12.0785 1.84982 11.9897 1.86111 11.9106C1.86596 11.8719 1.8708 11.8364 1.87403 11.8025L1.91599 11.4764L2.23559 11.5168L2.19362 11.8396C2.19039 11.8719 2.18555 11.9106 2.17909 11.9526C2.16941 12.0252 2.15811 12.1075 2.15165 12.1914L2.12421 12.5514L3.68667 12.6256L3.67053 12.9484H3.67214Z" fill="white"/>
<path d="M2.97164 11.9703L2.65043 11.9381L2.66657 11.7783C2.66657 11.7783 2.67303 11.7137 2.68917 11.6169L2.74889 11.2844C2.76826 11.1666 2.7957 11.0455 2.81668 10.9584V10.9551L1.29297 10.5888L1.36883 10.2756L3.20407 10.7163L3.13466 11.0213C3.11206 11.1214 3.08624 11.2295 3.06848 11.3393L3.00876 11.6734C2.99585 11.7541 2.98939 11.8106 2.98939 11.8122L2.97325 11.972L2.97164 11.9703Z" fill="white"/>
<path d="M4.66144 13.3036L4.33862 13.2955L4.36929 12.553C4.40964 12.0188 4.49196 11.5249 4.62109 11.0407C4.81156 10.3273 5.08273 9.65267 5.42814 9.03612C5.59601 8.72623 5.80907 8.40021 6.09477 8.01284C6.32559 7.70618 6.59837 7.39629 6.93088 7.06381C7.5168 6.48761 8.20763 5.9792 8.93075 5.59345C9.59092 5.24483 10.2898 4.97852 10.9516 4.82519C11.6021 4.67024 12.1347 4.61536 12.4673 4.59761C12.5819 4.58954 12.6852 4.58793 12.7707 4.58631C12.8159 4.58631 12.8563 4.58631 12.8902 4.58308C12.9999 4.57824 13.058 4.58308 13.058 4.58308L13.2194 4.59277L13.2017 4.91396L13.0403 4.90427C13.0403 4.90427 12.9886 4.90266 12.9063 4.90427C12.8708 4.90589 12.8256 4.9075 12.7755 4.9075C12.6948 4.9075 12.5996 4.91073 12.4882 4.9188C12.1654 4.93655 11.6537 4.9882 11.0259 5.1383C10.3883 5.28679 9.71682 5.5418 9.08086 5.87752C8.38518 6.24874 7.71856 6.73778 7.15685 7.29138C6.83726 7.61257 6.57254 7.91116 6.35303 8.20491C6.07701 8.57936 5.87202 8.89248 5.709 9.19107C5.37649 9.78664 5.11501 10.4371 4.931 11.123C4.80833 11.5879 4.72924 12.0624 4.68888 12.5772L4.65822 13.3036H4.66144Z" fill="white"/>
<path d="M3.66559 13.2922L3.34277 13.2841L3.37667 12.4771C3.42186 11.8832 3.51387 11.3312 3.65752 10.7905C3.86897 9.99642 4.17081 9.24429 4.55819 8.5535C4.74704 8.20649 4.99077 7.83365 5.3023 7.4124C5.56217 7.067 5.86723 6.7216 6.23364 6.35523C6.88573 5.71285 7.65728 5.14795 8.46271 4.71701C9.19552 4.32965 9.97513 4.03267 10.7176 3.85836C11.4391 3.68566 12.0347 3.62594 12.4076 3.60496C12.5399 3.59528 12.6562 3.59366 12.7514 3.59205C12.7998 3.59205 12.8434 3.59205 12.8805 3.58882C13.0016 3.58398 13.0645 3.58882 13.0645 3.58882L13.2259 3.59689L13.2098 3.91808L13.0484 3.91001C13.0484 3.91001 12.9919 3.90839 12.8967 3.91001C12.8579 3.91162 12.8111 3.91324 12.7578 3.91324C12.6675 3.91324 12.5561 3.91646 12.4286 3.92615C12.067 3.94552 11.4924 4.00524 10.7919 4.17148C10.0752 4.33933 9.32142 4.62501 8.61444 5.00108C7.83483 5.41588 7.09072 5.96302 6.46122 6.5828C6.10612 6.93788 5.81235 7.27198 5.56217 7.60447C5.26033 8.01119 5.02467 8.37273 4.84228 8.70844C4.4678 9.37664 4.17565 10.1046 3.97227 10.8728C3.83346 11.3941 3.74469 11.9268 3.7011 12.5014L3.68012 12.7725L3.66721 13.2938L3.66559 13.2922Z" fill="white"/>
<path d="M0.322821 13.2518L0 13.2438L0.016141 12.5869L0.0435808 12.214C0.104917 11.4183 0.229203 10.6759 0.422895 9.94151C0.700521 8.89079 1.12019 7.84815 1.6367 6.92332C1.90303 6.43589 2.23231 5.93394 2.63906 5.38679C2.99255 4.91711 3.41383 4.43937 3.88999 3.96485C4.76645 3.10136 5.80432 2.33955 6.889 1.76174C7.86715 1.24364 8.91793 0.843366 9.92997 0.604494C10.8904 0.373691 11.6974 0.291377 12.2059 0.262325C12.3947 0.249413 12.5577 0.246185 12.6885 0.242957C12.7466 0.242957 12.7982 0.241343 12.845 0.239729C13 0.234887 13.0823 0.238115 13.0823 0.238115L13.2437 0.244571L13.2308 0.567372L13.0694 0.560915C13.0694 0.560915 12.9919 0.557687 12.8563 0.56253C12.8095 0.564144 12.7563 0.565758 12.6949 0.565758C12.5674 0.567372 12.4092 0.5706 12.2268 0.583512C11.7297 0.61095 10.9436 0.69165 10.0058 0.917611C9.01962 1.15003 7.99466 1.54062 7.04072 2.0458C5.98349 2.60909 4.97144 3.35153 4.11758 4.19404C3.65272 4.65726 3.24112 5.12371 2.89732 5.58047C2.50025 6.11309 2.17904 6.60375 1.91917 7.07827C1.41557 7.98049 1.00559 8.99732 0.736032 10.0222C0.547181 10.7372 0.426124 11.4603 0.366402 12.235L0.332506 12.8629L0.322821 13.2486V13.2518Z" fill="white"/>
<path d="M1.31696 13.2632L0.994141 13.2551L1.01351 12.5966L1.03611 12.2915C1.0926 11.5555 1.2072 10.8696 1.38637 10.1933C1.64785 9.20879 2.02394 8.27105 2.50656 7.40756C2.75029 6.96209 3.05374 6.49726 3.43305 5.98885C3.75749 5.55791 4.14649 5.11567 4.58875 4.67505C5.39903 3.87773 6.3562 3.17402 7.35856 2.63979C8.26407 2.16043 9.23415 1.79082 10.1655 1.57132C11.0549 1.35827 11.799 1.28241 12.267 1.25497C12.4398 1.24206 12.5883 1.24045 12.7077 1.23722C12.7642 1.23722 12.8126 1.23561 12.8562 1.23399C13.0015 1.22915 13.0773 1.23238 13.0773 1.23238L13.2387 1.23883L13.2258 1.56002L13.0644 1.55356C13.0644 1.55356 12.9934 1.55034 12.8691 1.55518C12.8255 1.55679 12.7723 1.55841 12.7142 1.55841C12.5979 1.56002 12.4543 1.56325 12.288 1.57455C11.8312 1.60037 11.1081 1.67461 10.2413 1.88282C9.33583 2.09587 8.39158 2.45579 7.51028 2.92224C6.53536 3.44195 5.60402 4.12629 4.81634 4.90101C4.38537 5.33033 4.00606 5.75966 3.69131 6.1793C3.32168 6.6748 3.02791 7.12672 2.78903 7.56089C2.32578 8.39049 1.94969 9.32822 1.69789 10.2724C1.52357 10.9293 1.41219 11.5959 1.35731 12.3125L1.3331 12.6482L1.31696 13.2599V13.2632Z" fill="white"/>
<path d="M17.9763 5.3399L17.7019 5.17366L18.6849 3.55481L19.2676 3.92764L19.8341 4.33115L19.6469 4.59423L19.0868 4.19557L18.7882 4.00512L17.9763 5.3399Z" fill="white"/>
<path d="M19.889 5.82732L19.7695 5.72241C19.7695 5.72241 19.5871 5.561 19.4015 5.40606L19.1465 5.20592C19.0722 5.14621 19.0254 5.11393 19.0238 5.11231L18.8931 5.0187L19.0819 4.75723L19.2127 4.85084C19.2127 4.85084 19.2659 4.88796 19.3402 4.9493L19.6033 5.15589C19.6985 5.23498 19.7905 5.31568 19.8615 5.37539L20.9123 4.21008L21.1528 4.42636L19.889 5.82893V5.82732Z" fill="white"/>
<path d="M19.8438 6.89587L19.6211 6.66345L20.985 5.35449L21.211 5.59014C21.2852 5.66438 21.3789 5.77091 21.4596 5.86613C21.4902 5.90164 21.5193 5.93553 21.5483 5.96943C21.6048 6.03399 21.6581 6.09532 21.6984 6.14697L21.9002 6.40198L21.6468 6.60212L21.445 6.34549C21.4063 6.29707 21.3579 6.24058 21.3062 6.18086C21.2756 6.14697 21.2449 6.11146 21.2142 6.07434C21.1432 5.99041 21.0512 5.8855 20.9802 5.81448L20.9753 5.80964L19.8455 6.89425L19.8438 6.89587Z" fill="white"/>
<path d="M21.5643 7.85783L21.3948 7.59152L21.2043 7.32359C21.1446 7.23482 21.0736 7.14121 21.009 7.06212L20.8137 6.81357L21.0671 6.61343L21.2624 6.86037C21.3302 6.94269 21.4061 7.04437 21.4707 7.13798L21.6627 7.40913L22.9734 6.55371L23.1493 6.82486L21.5659 7.85783H21.5643Z" fill="white"/>
<path d="M23.0688 9.05382L22.9348 8.75684C22.9219 8.72779 22.9058 8.69228 22.888 8.65516C22.8573 8.58737 22.825 8.51151 22.7863 8.43888L22.6217 8.11608L21.2513 8.87305L21.0947 8.5906L22.7411 7.6803L22.8218 7.81103C22.8218 7.81103 22.8606 7.87236 22.9074 7.9692L23.072 8.28878C23.114 8.36625 23.1511 8.45018 23.1834 8.52442C23.1995 8.55993 23.214 8.59221 23.227 8.62126L23.3625 8.92147L23.0688 9.05382Z" fill="white"/>
<path d="M22.6667 10.2449L22.5505 9.90113C22.5247 9.82527 22.494 9.73327 22.4569 9.64289L22.3326 9.32654C22.3019 9.25068 22.2777 9.20065 22.2761 9.19742L22.2051 9.05216L22.4956 8.91174L22.5666 9.057C22.5666 9.057 22.5957 9.11511 22.6328 9.20549L22.7571 9.52022C22.7975 9.61545 22.8313 9.71713 22.8588 9.79783L22.8717 9.83818L24.3615 9.35075L24.4616 9.65741L22.6667 10.2449Z" fill="white"/>
<path d="M23.7999 11.7863L23.7805 11.6265C23.7805 11.6265 23.7724 11.5636 23.7563 11.4748L23.6917 11.1165C23.6772 11.0342 23.6578 10.9535 23.6417 10.8809C23.632 10.8405 23.624 10.8034 23.6159 10.7695L22.097 11.1456L22.0195 10.8324L23.8548 10.3789L23.929 10.6985C23.9371 10.734 23.9452 10.7695 23.9532 10.8066C23.9726 10.8841 23.992 10.9729 24.0081 11.0616L24.0711 11.4167C24.0904 11.5184 24.0985 11.5894 24.0985 11.5894L24.1179 11.7492L23.7983 11.7879L23.7999 11.7863Z" fill="white"/>
<path d="M23.1122 12.8386L23.0638 12.193L23.0024 11.7153L23.322 11.6749L23.3834 12.1607L23.4108 12.4997L24.9781 12.4125L24.9959 12.7353L23.1122 12.8386Z" fill="white"/>
<path d="M15.773 4.32637L15.4631 4.23599L15.9926 2.42346L16.3057 2.51223C16.3719 2.53321 16.4477 2.55904 16.5301 2.58648L16.656 2.63005C16.7544 2.66233 16.8965 2.71075 17.0078 2.75756L17.3081 2.87538L17.1902 3.17559L16.8868 3.05615C16.8045 3.02064 16.6899 2.98029 16.5559 2.93672L16.4268 2.89314C16.3493 2.86731 16.2766 2.84149 16.2153 2.82374L15.7763 4.32799L15.773 4.32637Z" fill="white"/>
<path d="M17.7421 4.30697L17.5968 4.22949C17.5968 4.22949 17.3838 4.1149 17.1691 4.0229C16.9512 3.9196 16.7284 3.83568 16.7252 3.83568L16.5735 3.77919L16.6865 3.47737L16.8382 3.53386C16.8479 3.53709 17.0771 3.62263 17.3014 3.73077C17.4112 3.77757 17.5194 3.82922 17.6033 3.87118L18.3167 2.47668L18.604 2.62356L17.7421 4.30858V4.30697Z" fill="white"/>
<path d="M13.3809 3.91648L13.0581 3.9084L13.1017 2.02002L13.4277 2.02809C13.5149 2.02809 13.636 2.03455 13.799 2.04907L14.4898 2.11847L14.4495 2.43805L14.1266 2.3977L13.7732 2.37026C13.6198 2.35735 13.5052 2.35089 13.4245 2.35089H13.4181L13.3825 3.91648H13.3809Z" fill="white"/>
<path d="M15.2808 3.38545L15.079 3.33865C15.0532 3.33219 15.0193 3.32574 14.9806 3.31928L14.6481 3.25956C14.5641 3.24181 14.4818 3.23212 14.4108 3.22405C14.3785 3.22083 14.3478 3.21598 14.3204 3.21276L14.0105 3.17402L14.0509 2.85445L14.4495 2.90448C14.5286 2.91417 14.619 2.92546 14.7078 2.94322L15.0322 3.00132L15.3599 1.46802L15.6763 1.53581L15.2808 3.38707V3.38545Z" fill="white"/>
<path d="M21.3383 13.2421L21.3302 12.9306C21.3302 12.8531 21.3237 12.7514 21.3124 12.6223L21.3044 12.5158C21.2753 12.1865 21.2156 11.6733 21.051 11.0648C21.038 11.0212 21.0251 10.9728 21.0106 10.9244C20.9816 10.8227 20.9525 10.7162 20.9154 10.6145L20.9089 10.5967L20.7378 10.1303C20.7007 10.0254 20.6539 9.92531 20.6055 9.8204C20.5764 9.75746 20.5474 9.69451 20.5199 9.62995L20.2617 9.14091C19.8743 8.45334 19.3691 7.79967 18.7993 7.24929C18.5346 6.98782 18.2295 6.73281 17.8647 6.46811C17.579 6.25668 17.2514 6.05493 16.8624 5.84834C16.5282 5.66595 16.1877 5.53038 15.8568 5.40126C15.5695 5.3028 15.2305 5.19144 14.9158 5.12365C14.4477 5.0139 13.9699 4.94449 13.4501 4.91221L13.0321 4.90092C12.9482 4.90092 12.903 4.90092 12.8981 4.90253L12.7383 4.91383L12.7141 4.59264L12.8739 4.57973C12.8739 4.57973 12.9304 4.57489 13.0385 4.5765L13.4631 4.5878C14.0054 4.62169 14.5009 4.69271 14.9852 4.8073C15.3128 4.87832 15.6631 4.99291 15.9633 5.09621C16.312 5.2334 16.6622 5.37059 17.0125 5.56266C17.4144 5.77571 17.755 5.98553 18.052 6.20503C18.4297 6.47941 18.7476 6.74411 19.0204 7.01688C19.6112 7.58662 20.1358 8.26612 20.5377 8.97789L20.6103 9.10217L20.8088 9.49115C20.8395 9.56216 20.867 9.62349 20.896 9.68321C20.9444 9.78974 20.9961 9.9011 21.0364 10.0141L21.1317 10.253L21.2124 10.4918C21.2576 10.6145 21.2882 10.7275 21.3189 10.8356C21.3318 10.8824 21.3447 10.9292 21.3576 10.9744C21.532 11.6103 21.5917 12.143 21.6224 12.4867L21.6304 12.5949C21.6417 12.7321 21.6498 12.8402 21.6482 12.9274L21.6563 13.2324L21.3334 13.2405L21.3383 13.2421Z" fill="white"/>
<path d="M22.3327 13.2228L22.3246 12.8952C22.3246 12.8032 22.3149 12.6789 22.3036 12.5207L22.2971 12.4319C22.2455 11.8557 22.1535 11.3231 22.0131 10.8066C21.9985 10.7598 21.9856 10.7098 21.9711 10.6582C21.9388 10.5403 21.9049 10.4193 21.8613 10.3015L21.7419 9.9609L21.6628 9.76077C21.6192 9.64133 21.566 9.52673 21.5111 9.40407C21.4804 9.3379 21.4497 9.27011 21.4207 9.20232L21.1301 8.65194C20.6976 7.88206 20.1326 7.15092 19.4951 6.53598C19.1965 6.24062 18.8543 5.95494 18.4507 5.66119C18.1279 5.42232 17.7615 5.19636 17.3289 4.96879C16.9658 4.77026 16.6026 4.625 16.2007 4.46683C15.9069 4.36515 15.5163 4.23603 15.1483 4.15533C14.6237 4.03266 14.0878 3.95519 13.51 3.91968L13.0435 3.90677C13.008 3.90516 12.9821 3.90677 12.9596 3.90677L12.7239 3.91323L12.7158 3.59043L12.9499 3.58397C12.9789 3.58397 13.0144 3.58236 13.058 3.58397L13.5261 3.59688C14.1282 3.634 14.6818 3.7147 15.2225 3.8406C15.6051 3.92452 16.007 4.05687 16.3153 4.1634C16.7188 4.32157 17.1062 4.47651 17.4855 4.68311C17.9294 4.91875 18.3087 5.15278 18.6444 5.39972C19.0609 5.70154 19.4144 5.99852 19.7243 6.30357C20.3828 6.93787 20.9687 7.69484 21.4142 8.49054L21.4949 8.62935L21.7161 9.06351C21.7483 9.13937 21.779 9.20393 21.8081 9.26688C21.8646 9.38954 21.9227 9.51544 21.9695 9.64294L22.1035 9.9948L22.1696 10.1901C22.2164 10.316 22.252 10.4435 22.2858 10.5678C22.3004 10.6178 22.3133 10.6662 22.3278 10.7146C22.4747 11.2521 22.5699 11.8025 22.6232 12.4013L22.6297 12.4917C22.6426 12.6579 22.6522 12.7886 22.6522 12.8887L22.6603 13.2115L22.3375 13.2196L22.3327 13.2228Z" fill="white"/>
<path d="M25.6771 13.1614L25.6674 12.7757C25.6674 12.6288 25.6497 12.4061 25.6287 12.1494C25.5609 11.3715 25.4334 10.6484 25.2413 9.93987C24.9524 8.87947 24.5472 7.89331 24.0388 7.00561C23.4513 5.96135 22.6846 4.97035 21.8194 4.13591C21.4094 3.73241 20.9333 3.33375 20.4022 2.94962C19.9503 2.61875 19.4531 2.31047 18.8801 2.00865C18.362 1.72782 17.8358 1.51638 17.3467 1.32754C16.7931 1.13386 16.3218 0.993444 15.9102 0.901446C15.1919 0.731975 14.4639 0.628679 13.6859 0.581873C13.4874 0.573803 13.3195 0.570575 13.1856 0.567347L13.0564 0.564119C13.008 0.562505 12.9676 0.564119 12.937 0.564119L12.6771 0.568961L12.6707 0.24616L12.9273 0.241318C12.9644 0.241318 13.0112 0.239704 13.0661 0.241318L13.192 0.244546C13.3276 0.247774 13.4987 0.251002 13.7021 0.259072C14.5027 0.307492 15.2468 0.414016 15.9812 0.586715C16.4041 0.681941 16.8867 0.823974 17.4565 1.02411C17.9617 1.21779 18.4976 1.43568 19.0318 1.72297C19.6178 2.03286 20.1294 2.34921 20.5927 2.68815C21.135 3.08035 21.6241 3.49031 22.0454 3.90349C22.9315 4.75892 23.7192 5.77574 24.3196 6.84583C24.841 7.75451 25.2574 8.76649 25.5544 9.85433C25.7514 10.5806 25.8821 11.3231 25.9515 12.122C25.9725 12.398 25.9902 12.6159 25.9902 12.7708L25.9999 13.1534L25.6771 13.1614Z" fill="white"/>
<path d="M24.6812 13.1792L24.6716 12.8096C24.6716 12.6821 24.657 12.4949 24.6393 12.2609V12.2318C24.5731 11.5136 24.4569 10.847 24.2809 10.1966C24.013 9.21686 23.6401 8.30818 23.172 7.49472C22.6313 6.53277 21.9243 5.61924 21.127 4.84936C20.746 4.4733 20.3183 4.11661 19.8212 3.75668C19.408 3.45325 18.9495 3.16919 18.4169 2.88835C17.9262 2.62204 17.4307 2.42513 17.0046 2.2605C16.48 2.07812 16.0587 1.95223 15.6826 1.8683C15.0208 1.71335 14.351 1.61651 13.6327 1.57293C13.4584 1.56648 13.3066 1.56325 13.1856 1.56002L13.0516 1.55679C13.0064 1.55518 12.9709 1.55679 12.9435 1.55679L12.6917 1.56325L12.6836 1.24045L12.9338 1.23399C12.9677 1.23399 13.0113 1.23238 13.0645 1.23399L13.1953 1.23722C13.3179 1.24045 13.4713 1.24368 13.6521 1.25013C14.3929 1.29533 15.0805 1.39378 15.7585 1.55357C16.1458 1.63911 16.5784 1.76823 17.1192 1.95707C17.5921 2.13945 18.0908 2.3412 18.5735 2.60267C19.1174 2.88996 19.5887 3.1821 20.0149 3.4936C20.5249 3.86321 20.964 4.2312 21.3562 4.61695C22.1745 5.4062 22.9025 6.34716 23.4577 7.33332C23.9387 8.16937 24.3213 9.10388 24.5973 10.1094C24.7797 10.7792 24.8991 11.4636 24.9637 12.2028V12.2334C24.9847 12.4755 24.9992 12.6676 24.9992 12.8032L25.0089 13.1679L24.6861 13.176L24.6812 13.1792Z" fill="white"/>
<path d="M8.96755 16.7581V14H11.7256V16.3211H13.7302V13.9398H15.9155V16.6978H18.7188V14H15.9155V11.5283H14.2727V9.88552H15.9155V11.5283H18.7188V7.51929H13.5192V9.13194H11.8764V7.51929H7.27954V12.2065H8.75655V13.8493H7.27954V18.9586H11.3338V16.7581H8.96755ZM11.9819 12.2517H13.6247V13.8945H11.9819V12.2517ZM9.44984 9.88552H11.0926V11.5283H9.44984V9.88552ZM15.9155 18.9736H13.8357V16.6376H15.9155V18.9736Z" fill="white"/>
</svg>
